<?xml version="1.0" encoding="UTF-8" standalone="no"?>
<svg
   version="1.1"
   id="svg868"
   xml:space="preserve"
   width="3840.0002"
   height="1005.9261"
   viewBox="0 0 3840.0002 1005.9262"
   xmlns="http://www.w3.org/2000/svg"
   xmlns:svg="http://www.w3.org/2000/svg"
   xmlns:rdf="http://www.w3.org/1999/02/22-rdf-syntax-ns#"
   xmlns:cc="http://creativecommons.org/ns#"
   xmlns:dc="http://purl.org/dc/elements/1.1/"><metadata
     id="metadata874"><rdf:RDF><cc:Work
         rdf:about=""><dc:format>image/svg+xml</dc:format><dc:type
           rdf:resource="http://purl.org/dc/dcmitype/StillImage" /></cc:Work></rdf:RDF></metadata><defs
     id="defs872"><clipPath
       clipPathUnits="userSpaceOnUse"
       id="clipPath886"><path
         d="M 775.719,387.832 C 775.719,173.621 602.074,0 387.871,0 173.652,0 0,173.621 0,387.832 c 0,214.231 173.645,387.883 387.871,387.883 214.203,0 387.848,-173.652 387.848,-387.883 z"
         id="path884" /></clipPath></defs><g
     id="g876"
     transform="matrix(1.3333333,0,0,-1.3333333,1722.587,554.67746)"><g
       id="g878"
       transform="scale(0.1)"><g
         id="g880"
         transform="matrix(9.7257964,0,0,9.7257964,-12919.403,-3384.3651)"><g
           id="g882"
           clip-path="url(#clipPath886)"><path
             d="M 47.9531,350.156 C 18.8203,423.469 7.375,475.891 98.6875,491.262 c 10.5825,2.078 41.6995,8.965 41.6995,8.965 0,0 38.691,-179.258 -144.33622,-603.418 H 259.004 c 29.394,128.9527 19.008,432.546 -6.602,626.843 L 431.41,562.82 c 0,0 70,-517.7106 231.852,-666.011 h 125.343 l -2.449,265.425 C 660.82,283.457 541.109,490.684 529.234,582.676 l 256.922,53.847 -1.23,117.969 C 757.988,749.18 668.586,666.77 553.461,644.094 306.734,593.445 236.723,646.711 129.789,625.652 45.1406,612.59 -2.71484,565.273 -2.71484,565.273 L -160.09,374.836 -2.71484,319.531 c 15.61714,0 62.09374,1.414 50.66794,30.625 z M 810.625,-187.617 H -31.4688 V 902.148 H 810.625 V -187.617"
             style="fill:#176fc1;fill-opacity:1;fill-rule:nonzero;stroke:none"
             id="path888" /></g></g><g
         id="g890"
         transform="scale(10)"><g
           aria-label="Pacific Institute "
           transform="scale(1,-1)"
           id="text894"
           style="font-size:232.97px;font-family:Garamond;-inkscape-font-specification:Garamond;fill:#176fc1;stroke-width:9.7258"><path
             d="m -374.66245,-250.18208 c 0,-7.45504 0.23297,-8.38692 12.58038,-8.38692 24.22888,0 37.50817,14.67711 37.50817,37.2752 0,20.26839 -9.08583,34.47956 -34.24659,39.13896 -1.39782,0.46594 -1.39782,3.96049 0.23297,4.6594 9.55177,0 21.89918,-2.09673 32.14986,-6.9891 10.01771,-4.89237 23.297,-15.60899 23.297,-37.04223 0,-16.07493 -7.92098,-28.18937 -18.6376,-34.9455 -10.94959,-6.75613 -25.39373,-9.3188 -44.73024,-9.3188 -19.33651,0 -33.78065,0.23297 -46.12806,1.86376 -1.86376,0.93188 -2.09673,4.42643 -0.46594,5.82425 l 8.38692,0.93188 c 10.48365,1.16485 10.94959,5.12534 10.94959,24.92779 v 85.96593 c 0,24.46185 -0.46594,27.25749 -13.9782,29.12125 l -4.89237,0.69891 c -1.39782,1.39782 -0.93188,5.12534 0.46594,5.82425 10.25068,-0.46594 18.6376,-0.69891 28.42234,-0.69891 9.3188,0 17.00681,0.23297 30.2861,0.69891 1.39782,-0.69891 1.86376,-4.6594 0.46594,-5.82425 l -6.29019,-0.69891 c -14.91008,-1.63079 -15.37602,-4.6594 -15.37602,-29.12125 z"
             style="font-family:'Adobe Garamond Pro';-inkscape-font-specification:'Adobe Garamond Pro'"
             id="path157" /><path
             d="m -267.55669,-149.53904 c -14.91008,5.35831 -19.33651,10.71662 -19.33651,19.80245 0,6.52316 2.79564,12.34741 7.22207,16.3079 3.96049,3.49455 9.55177,5.35831 16.3079,5.35831 6.52316,0 11.6485,-3.02861 16.77384,-5.82425 4.6594,-2.56267 7.45504,-4.6594 9.08583,-4.6594 1.39782,0 2.79564,1.86376 3.72752,3.26158 3.96049,5.12534 9.55177,7.22207 15.14305,7.22207 11.41553,0 19.56948,-9.08583 19.56948,-10.25068 0,-1.63079 -0.69891,-3.02861 -1.63079,-3.02861 -0.69891,0 -1.86376,0.93188 -3.02861,1.63079 -1.39782,0.69891 -3.49455,1.39782 -5.82425,1.39782 -9.08583,0 -11.18256,-9.55177 -10.71662,-20.26839 l 1.39782,-40.53678 c 0.69891,-17.47275 -7.45504,-27.25749 -24.22888,-27.25749 -17.00681,0 -43.33242,16.54087 -43.33242,28.65531 0,2.09673 1.16485,3.26158 3.26158,3.26158 3.49455,0 9.78474,-1.63079 13.27929,-4.42643 1.86376,-1.39782 2.09673,-4.19346 2.3297,-7.92098 0.46594,-7.22207 8.38692,-10.48365 14.91008,-10.48365 14.44414,0 17.23978,11.6485 17.00681,20.26839 l -0.23297,10.71662 c 0,3.49455 -0.46594,5.59128 -3.96049,6.75613 z m -1.39782,17.00681 c 0,-9.08583 6.75613,-12.58038 20.50136,-17.23978 4.19346,-1.39782 8.15395,-2.3297 9.55177,-2.3297 1.39782,0 2.3297,0.46594 2.3297,3.02861 l -0.46594,13.74523 c -0.23297,4.89237 -0.23297,8.15395 -3.02861,10.94959 -2.3297,2.3297 -9.55177,5.82425 -14.21117,5.82425 -11.88147,0 -14.67711,-10.01771 -14.67711,-13.9782 z"
             style="font-family:'Adobe Garamond Pro';-inkscape-font-specification:'Adobe Garamond Pro'"
             id="path159" /><path
             d="m -130.9811,-206.38372 c -38.67302,0 -56.37875,26.79155 -56.37875,51.95231 0,15.14305 5.35831,26.55858 13.51226,34.47956 8.15396,7.92098 19.56949,11.88147 31.9169,11.88147 13.51226,0 30.98501,-6.52316 38.90599,-23.76294 -0.23297,-2.09673 -2.3297,-3.72752 -4.19346,-3.26158 -5.35831,7.92098 -12.34741,13.9782 -25.85967,13.9782 -24.92779,0 -37.50818,-21.66621 -37.50818,-39.83787 0,-24.69482 15.84197,-37.50817 32.14987,-37.50817 9.55177,0 18.17166,6.05722 23.297,12.34741 0.93188,1.16485 2.09673,1.63079 3.26158,1.63079 2.79564,0 5.12534,-4.42643 5.12534,-8.61989 0,-3.96049 -1.63079,-7.68801 -3.49455,-9.3188 -6.29019,-2.79564 -15.37602,-3.96049 -20.73433,-3.96049 z"
             style="font-family:'Adobe Garamond Pro';-inkscape-font-specification:'Adobe Garamond Pro'"
             id="path161" /><path
             d="m -71.221796,-137.4246 c 0,16.77384 -0.23297,19.10354 -8.85286,20.26839 l -4.89237,0.69891 c -1.63079,1.16485 -1.16485,5.12534 0.46594,5.82425 6.52316,-0.46594 13.51226,-0.69891 21.89918,-0.69891 8.15395,0 14.91008,0.23297 21.89918,0.69891 1.63079,-0.69891 2.09673,-4.6594 0.46594,-5.82425 l -4.89237,-0.69891 c -8.38692,-1.16485 -8.85286,-3.49455 -8.85286,-20.26839 v -41.9346 c 0,-9.55177 0.46594,-20.73433 0.93188,-28.88828 -0.23297,-0.93188 -1.16485,-1.39782 -2.3297,-1.39782 -5.35831,3.49455 -18.6376,9.55177 -23.99591,11.41553 -1.16485,0.69891 -1.16485,3.26158 -0.23297,4.19346 l 2.09673,1.39782 c 6.29019,4.19346 6.29019,5.35831 6.29019,14.44414 z m 7.68801,-119.28064 c -6.9891,0 -12.58038,4.89237 -12.58038,12.58038 0,6.29019 4.6594,11.6485 11.88147,11.6485 6.52316,0 12.34741,-3.72752 12.34741,-12.11444 0,-6.52316 -4.6594,-12.11444 -11.6485,-12.11444 z"
             style="font-family:'Adobe Garamond Pro';-inkscape-font-specification:'Adobe Garamond Pro'"
             id="path163" /><path
             d="m 32.220171,-193.3374 c 2.56267,-0.93188 4.19346,-7.45504 1.63079,-9.78474 H 7.2923812 c -3.9604901,0 -3.9604901,-0.23297 -3.9604901,-6.52316 v -6.75613 c 0,-11.6485 0.93188,-28.65531 5.1253401,-39.37193 3.4945498,-8.38692 9.3187998,-12.81335 16.5408698,-12.81335 7.68801,0 14.21117,5.12534 18.6376,10.25068 1.63079,1.86376 3.02861,2.79564 5.59128,2.79564 4.42643,0 8.85286,-3.72752 8.85286,-8.38692 0,-8.38692 -10.48365,-13.9782 -22.83106,-13.9782 -23.06403,0 -36.11034988,16.3079 -41.9345999,29.58719 -5.5912801,13.04632 -7.2220701,27.49046 -7.2220701,41.00272 0,2.3297 -1.63079,3.72752 -3.49455,4.6594 l -10.01771,4.89237 c -0.93188,1.39782 -0.69891,3.49455 0.69891,4.42643 h 8.15395 c 4.6594,0 4.6594,0.46594 4.6594,6.75613 v 49.15667 c 0,16.77384 -0.23297,19.10354 -8.85286,20.26839 l -5.35831,0.69891 c -1.63079,1.16485 -1.16485,5.12534 0.46594,5.82425 6.9891,-0.46594 13.9782,-0.69891 22.3651201,-0.69891 8.15395,0 14.9100801,0.23297 25.3937299,0.69891 1.63079,-0.69891 2.09673,-4.6594 0.46594,-5.82425 l -8.38692,-0.69891 c -8.3869199,-0.69891 -8.8528599,-3.49455 -8.8528599,-20.26839 v -49.15667 c 0,-6.29019 0,-6.75613 3.9604901,-6.75613 z"
             style="font-family:'Adobe Garamond Pro';-inkscape-font-specification:'Adobe Garamond Pro'"
             id="path165" /><path
             d="m 66.639505,-137.4246 c 0,16.77384 -0.23297,19.10354 -8.85286,20.26839 l -4.89237,0.69891 c -1.63079,1.16485 -1.16485,5.12534 0.46594,5.82425 6.52316,-0.46594 13.51226,-0.69891 21.89918,-0.69891 8.15395,0 14.91008,0.23297 21.89918,0.69891 1.63079,-0.69891 2.09673,-4.6594 0.46594,-5.82425 l -4.89237,-0.69891 c -8.38692,-1.16485 -8.85286,-3.49455 -8.85286,-20.26839 v -41.9346 c 0,-9.55177 0.46594,-20.73433 0.93188,-28.88828 -0.23297,-0.93188 -1.16485,-1.39782 -2.3297,-1.39782 -5.35831,3.49455 -18.6376,9.55177 -23.99591,11.41553 -1.16485,0.69891 -1.16485,3.26158 -0.23297,4.19346 l 2.09673,1.39782 c 6.29019,4.19346 6.29019,5.35831 6.29019,14.44414 z m 7.68801,-119.28064 c -6.9891,0 -12.58038,4.89237 -12.58038,12.58038 0,6.29019 4.6594,11.6485 11.88147,11.6485 6.52316,0 12.34741,-3.72752 12.34741,-12.11444 0,-6.52316 -4.6594,-12.11444 -11.6485,-12.11444 z"
             style="font-family:'Adobe Garamond Pro';-inkscape-font-specification:'Adobe Garamond Pro'"
             id="path167" /><path
             d="m 166.58688,-206.38372 c -38.67302,0 -56.37874,26.79155 -56.37874,51.95231 0,15.14305 5.35831,26.55858 13.51226,34.47956 8.15395,7.92098 19.56948,11.88147 31.91689,11.88147 13.51226,0 30.98501,-6.52316 38.90599,-23.76294 -0.23297,-2.09673 -2.3297,-3.72752 -4.19346,-3.26158 -5.35831,7.92098 -12.34741,13.9782 -25.85967,13.9782 -24.92779,0 -37.50817,-21.66621 -37.50817,-39.83787 0,-24.69482 15.84196,-37.50817 32.14986,-37.50817 9.55177,0 18.17166,6.05722 23.297,12.34741 0.93188,1.16485 2.09673,1.63079 3.26158,1.63079 2.79564,0 5.12534,-4.42643 5.12534,-8.61989 0,-3.96049 -1.63079,-7.68801 -3.49455,-9.3188 -6.29019,-2.79564 -15.37602,-3.96049 -20.73433,-3.96049 z"
             style="font-family:'Adobe Garamond Pro';-inkscape-font-specification:'Adobe Garamond Pro'"
             id="path169" /><path
             d="m 296.23456,-146.7434 c 0,24.69482 -0.46594,27.9564 -14.21117,29.58719 l -5.82425,0.69891 c -1.39782,1.39782 -0.93188,5.12534 0.46594,5.82425 11.6485,-0.46594 19.56948,-0.69891 29.35422,-0.69891 9.3188,0 17.23978,0.23297 28.88828,0.69891 1.39782,-0.69891 1.86376,-4.89237 0.46594,-5.82425 l -5.82425,-0.69891 c -13.74523,-1.63079 -14.21117,-4.89237 -14.21117,-29.58719 v -82.93732 c 0,-24.69482 0.46594,-28.65531 14.21117,-29.82016 l 5.82425,-0.46594 c 1.39782,-0.93188 0.93188,-5.12534 -0.46594,-5.82425 -11.6485,0.46594 -19.56948,0.69891 -28.88828,0.69891 -9.78474,0 -17.70572,-0.23297 -29.35422,-0.69891 -1.39782,0.69891 -1.86376,4.89237 -0.46594,5.82425 l 5.82425,0.46594 c 13.74523,1.16485 14.21117,5.12534 14.21117,29.82016 z"
             style="font-family:'Adobe Garamond Pro';-inkscape-font-specification:'Adobe Garamond Pro'"
             id="path171" /><path
             d="m 376.37864,-137.4246 c 0,16.77384 -0.23297,19.10354 -8.85286,20.26839 l -4.89237,0.69891 c -1.63079,1.16485 -1.16485,5.12534 0.46594,5.82425 6.52316,-0.46594 13.51226,-0.69891 21.89918,-0.69891 8.15395,0 14.91008,0.23297 21.20027,0.69891 1.63079,-0.69891 2.09673,-4.6594 0.46594,-5.82425 l -4.19346,-0.69891 c -8.38692,-1.39782 -8.85286,-3.49455 -8.85286,-20.26839 v -35.64441 c 0,-6.75613 0.46594,-10.01771 3.49455,-13.9782 3.26158,-4.42643 10.94959,-8.15395 19.80245,-8.15395 15.84196,0 21.89918,9.78474 21.89918,23.06403 v 34.71253 c 0,16.77384 -0.23297,18.87057 -8.85286,20.26839 l -4.42643,0.69891 c -1.63079,1.16485 -1.16485,5.12534 0.46594,5.82425 6.29019,-0.46594 13.27929,-0.69891 21.66621,-0.69891 8.15395,0 14.91008,0.23297 21.89918,0.69891 1.63079,-0.69891 2.09673,-4.6594 0.46594,-5.82425 l -5.12534,-0.69891 c -8.38692,-1.16485 -8.85286,-3.49455 -8.85286,-20.26839 v -40.07084 c 0,-15.60899 -7.92098,-28.88828 -27.25749,-28.88828 -11.88147,0 -22.83106,5.82425 -32.6158,11.88147 -1.63079,0 -2.56267,-1.16485 -2.56267,-2.56267 0,-2.09673 0,-5.59128 0.46594,-10.94959 -0.46594,-1.16485 -1.63079,-1.63079 -2.56267,-1.63079 -4.6594,3.49455 -17.93869,9.55177 -23.297,11.41553 -1.16485,0.69891 -1.16485,3.26158 -0.23297,4.19346 l 2.09673,1.39782 c 6.29019,4.19346 6.29019,5.35831 6.29019,14.44414 z"
             style="font-family:'Adobe Garamond Pro';-inkscape-font-specification:'Adobe Garamond Pro'"
             id="path173" /><path
             d="m 520.40923,-206.38372 c -17.70572,0 -31.68392,9.55177 -31.68392,26.55858 0,12.81335 9.55177,20.9673 23.06403,28.65531 8.61989,4.89237 17.93869,10.71662 17.93869,21.43324 0,10.01771 -7.22207,14.91008 -15.60899,14.91008 -13.27929,0 -20.73433,-11.18256 -24.69482,-23.99591 -1.16485,-1.39782 -4.19346,-1.16485 -5.35831,0.23297 -0.46594,7.68801 0.93188,19.10354 2.79564,23.52997 5.82425,4.6594 13.9782,6.9891 24.92779,6.9891 17.23978,0 33.54768,-8.85286 33.54768,-26.55858 0,-16.54087 -11.41553,-24.46185 -23.76294,-31.45095 -8.15395,-4.6594 -17.93869,-9.78474 -17.93869,-19.33651 0,-8.38692 5.82425,-14.21117 14.91008,-14.21117 9.55177,0 16.54087,6.75613 20.50136,17.00681 1.16485,1.39782 4.6594,0.93188 5.59128,-0.69891 0,-6.29019 -1.63079,-13.74523 -3.72752,-18.87057 -2.09673,-1.86376 -10.71662,-4.19346 -20.50136,-4.19346 z"
             style="font-family:'Adobe Garamond Pro';-inkscape-font-specification:'Adobe Garamond Pro'"
             id="path175" /><path
             d="m 634.97286,-193.3374 c 2.09673,-1.39782 2.56267,-7.68801 -0.23297,-9.78474 h -25.85967 c -3.96049,0 -4.19346,-0.23297 -4.19346,-4.42643 v -10.48365 c -0.93188,-1.63079 -3.72752,-1.63079 -4.89237,-1.16485 -2.3297,4.6594 -6.75613,10.94959 -9.78474,13.74523 -2.3297,2.09673 -8.15395,5.12534 -14.91008,7.22207 -0.93188,1.39782 -0.69891,3.96049 0.69891,4.89237 h 6.52316 c 4.6594,0 4.89237,0.46594 4.89237,6.75613 v 53.35013 c 0,13.9782 4.19346,25.16076 24.22888,25.16076 11.88147,0 20.26839,-5.82425 24.46185,-10.71662 0.46594,-1.39782 -0.46594,-3.96049 -2.3297,-3.96049 -0.69891,0 -3.72752,2.56267 -5.82425,3.26158 -1.86376,0.69891 -3.96049,1.16485 -6.29019,1.16485 -15.37602,0 -17.00681,-12.34741 -17.00681,-25.85967 v -43.56539 c 0,-4.89237 0.23297,-5.59128 4.19346,-5.59128 z"
             style="font-family:'Adobe Garamond Pro';-inkscape-font-specification:'Adobe Garamond Pro'"
             id="path177" /><path
             d="m 662.11689,-137.4246 c 0,16.77384 -0.23297,19.10354 -8.85286,20.26839 l -4.89237,0.69891 c -1.63079,1.16485 -1.16485,5.12534 0.46594,5.82425 6.52316,-0.46594 13.51226,-0.69891 21.89918,-0.69891 8.15395,0 14.91008,0.23297 21.89918,0.69891 1.63079,-0.69891 2.09673,-4.6594 0.46594,-5.82425 l -4.89237,-0.69891 c -8.38692,-1.16485 -8.85286,-3.49455 -8.85286,-20.26839 v -41.9346 c 0,-9.55177 0.46594,-20.73433 0.93188,-28.88828 -0.23297,-0.93188 -1.16485,-1.39782 -2.3297,-1.39782 -5.35831,3.49455 -18.6376,9.55177 -23.99591,11.41553 -1.16485,0.69891 -1.16485,3.26158 -0.23297,4.19346 l 2.09673,1.39782 c 6.29019,4.19346 6.29019,5.35831 6.29019,14.44414 z m 7.68801,-119.28064 c -6.9891,0 -12.58038,4.89237 -12.58038,12.58038 0,6.29019 4.6594,11.6485 11.88147,11.6485 6.52316,0 12.34741,-3.72752 12.34741,-12.11444 0,-6.52316 -4.6594,-12.11444 -11.6485,-12.11444 z"
             style="font-family:'Adobe Garamond Pro';-inkscape-font-specification:'Adobe Garamond Pro'"
             id="path179" /><path
             d="m 765.55416,-193.3374 c 2.09673,-1.39782 2.56267,-7.68801 -0.23297,-9.78474 h -25.85967 c -3.96049,0 -4.19346,-0.23297 -4.19346,-4.42643 v -10.48365 c -0.93188,-1.63079 -3.72752,-1.63079 -4.89237,-1.16485 -2.3297,4.6594 -6.75613,10.94959 -9.78474,13.74523 -2.3297,2.09673 -8.15395,5.12534 -14.91008,7.22207 -0.93188,1.39782 -0.69891,3.96049 0.69891,4.89237 h 6.52316 c 4.6594,0 4.89237,0.46594 4.89237,6.75613 v 53.35013 c 0,13.9782 4.19346,25.16076 24.22888,25.16076 11.88147,0 20.26839,-5.82425 24.46185,-10.71662 0.46594,-1.39782 -0.46594,-3.96049 -2.3297,-3.96049 -0.69891,0 -3.72752,2.56267 -5.82425,3.26158 -1.86376,0.69891 -3.96049,1.16485 -6.29019,1.16485 -15.37602,0 -17.00681,-12.34741 -17.00681,-25.85967 v -43.56539 c 0,-4.89237 0.23297,-5.59128 4.19346,-5.59128 z"
             style="font-family:'Adobe Garamond Pro';-inkscape-font-specification:'Adobe Garamond Pro'"
             id="path181" /><path
             d="m 806.90923,-184.48454 c 0,-11.41553 0.23297,-16.3079 0.69891,-20.26839 -0.23297,-0.93188 -0.93188,-1.39782 -2.3297,-1.63079 -5.12534,1.86376 -14.21117,3.96049 -24.92779,4.19346 -1.63079,0.69891 -1.86376,3.96049 -0.46594,5.12534 l 2.79564,1.16485 c 6.9891,3.02861 6.9891,5.12534 6.9891,19.80245 v 38.90599 c 0,18.87057 7.68801,29.12125 28.18937,29.12125 13.74523,0 25.16076,-7.68801 32.14986,-12.11444 1.39782,0 2.09673,1.16485 2.09673,3.26158 v 9.55177 c 0.46594,0.93188 1.63079,1.63079 2.79564,1.63079 7.92098,-4.42643 21.43324,-6.75613 30.51907,-8.61989 1.86377,-0.93188 1.6308,-5.59128 0.23298,-6.75613 -3.26159,0.69891 -6.2902,1.16485 -9.08584,1.16485 -6.52316,0 -7.22207,-6.9891 -7.22207,-25.39373 v -39.13896 c 0,-8.61989 0.23297,-15.84196 0.69891,-20.26839 -0.23297,-0.93188 -0.93188,-1.39782 -2.09673,-1.63079 -5.12534,2.3297 -17.93869,3.96049 -27.25749,4.19346 -1.86376,0.93188 -1.86376,4.19346 -0.23297,5.12534 l 3.02861,1.16485 c 6.9891,2.79564 8.61989,3.26158 8.61989,18.40463 v 38.20708 c 0,7.22207 -1.63079,10.71662 -4.6594,13.51226 -5.12534,4.42643 -12.58038,6.9891 -18.87057,6.9891 -17.70572,0 -21.66621,-10.71662 -21.66621,-26.79155 z"
             style="font-family:'Adobe Garamond Pro';-inkscape-font-specification:'Adobe Garamond Pro'"
             id="path183" /><path
             d="m 956.87905,-193.3374 c 2.09673,-1.39782 2.56267,-7.68801 -0.23297,-9.78474 h -25.85967 c -3.96049,0 -4.19346,-0.23297 -4.19346,-4.42643 v -10.48365 c -0.93188,-1.63079 -3.72752,-1.63079 -4.89237,-1.16485 -2.3297,4.6594 -6.75613,10.94959 -9.78474,13.74523 -2.3297,2.09673 -8.15395,5.12534 -14.91008,7.22207 -0.93188,1.39782 -0.69891,3.96049 0.69891,4.89237 h 6.52316 c 4.6594,0 4.89237,0.46594 4.89237,6.75613 v 53.35013 c 0,13.9782 4.19346,25.16076 24.22888,25.16076 11.88147,0 20.26839,-5.82425 24.46185,-10.71662 0.46594,-1.39782 -0.46594,-3.96049 -2.3297,-3.96049 -0.69891,0 -3.72752,2.56267 -5.82425,3.26158 -1.86376,0.69891 -3.96049,1.16485 -6.29019,1.16485 -15.37602,0 -17.00681,-12.34741 -17.00681,-25.85967 v -43.56539 c 0,-4.89237 0.23297,-5.59128 4.19346,-5.59128 z"
             style="font-family:'Adobe Garamond Pro';-inkscape-font-specification:'Adobe Garamond Pro'"
             id="path185" /><path
             d="m 1034.5775,-170.97228 c 9.7847,0 13.0463,-0.23297 13.7452,-1.63079 0.466,-0.93188 0.9319,-2.79564 0.9319,-6.05722 0,-13.9782 -13.0463,-27.72343 -33.0817,-27.72343 -27.95642,0 -46.82699,23.99591 -46.82699,52.65122 0,10.25068 2.79564,21.20027 9.78474,30.2861 6.75613,8.85286 18.6376,15.37602 33.78065,15.37602 12.1144,0 28.8883,-5.82425 36.5763,-21.66621 -0.233,-2.09673 -1.8638,-3.49455 -4.1935,-2.79564 -7.222,9.08583 -13.7452,11.41553 -21.4332,11.41553 -24.9278,0 -38.67303,-20.03542 -38.67303,-43.56539 0,-5.82425 0.23297,-6.29019 6.29019,-6.29019 z m -45.19617,-6.9891 c -1.63079,0 -1.63079,-0.69891 -1.63079,-1.16485 0.23297,-7.68801 12.11444,-20.26839 25.85966,-20.26839 13.5123,0 17.9387,8.15395 17.9387,14.67711 0,3.02861 -0.6989,3.96049 -1.3978,4.42643 -1.8638,1.39782 -6.9891,2.3297 -24.2289,2.3297 z"
             style="font-family:'Adobe Garamond Pro';-inkscape-font-specification:'Adobe Garamond Pro'"
             id="path187" /></g><g
           aria-label="for the"
           transform="scale(1,-1)"
           id="text898"
           style="font-size:133.013px;font-family:Cmti12;-inkscape-font-specification:Cmti12;fill:#176fc1;stroke-width:9.7258"><path
             d="m 1181.3844,-89.509517 q 1.9484,2.143276 5.3257,2.143276 2.3381,0 3.8968,-2.468015 1.5588,-2.403067 2.2083,-5.260768 1.9484,-7.728786 4.0267,-17.211156 2.0783,-9.48237 3.9618,-19.22453 l 6.235,-32.73367 h -10.2617 q -1.1691,0 -1.1691,-1.4938 l 0.5196,-2.07833 q 0.2598,-0.84432 1.0392,-0.84432 h 10.7813 l 1.6237,-8.76795 q 1.6237,-7.98857 3.2474,-13.24934 1.6237,-5.32571 5.2607,-9.80711 3.7021,-4.48139 9.6772,-4.48139 2.1433,0 3.8969,0.51958 1.8186,0.45463 3.3773,1.55874 1.6237,1.03917 2.533,2.59791 0.9742,1.55875 0.9742,3.70203 0,2.92265 -1.8186,5.06592 -1.7536,2.14328 -4.5463,2.14328 -1.8185,0 -3.1175,-1.10411 -1.299,-1.16906 -1.299,-2.92265 0,-2.27318 1.4938,-3.96182 1.5588,-1.75359 3.832,-2.27317 -2.1433,-2.14327 -5.5855,-2.14327 -1.4938,0 -2.8577,1.3639 -1.299,1.29895 -2.0134,3.05254 -0.7144,2.07833 -2.2082,9.09269 -1.4938,6.94941 -2.2083,10.84627 l -1.7536,8.76795 h 12.535 q 0.4546,0 0.7144,0.45463 0.3247,0.38969 0.3247,0.90927 l -0.5196,2.14328 q 0,0.90927 -1.0391,0.90927 h -12.7947 l -6.3649,32.86356 q -2.1433,11.5607 -3.1825,16.43178 -1.0391,4.87108 -3.702,12.53492 -2.5979,7.663835 -6.6246,12.924603 -4.0268,5.325716 -9.3525,5.325716 -4.0268,0 -7.2742,-2.273172 -3.2474,-2.273171 -3.2474,-6.105089 0,-2.922649 1.8186,-5.065924 1.7536,-2.143276 4.5463,-2.143276 1.8835,0 3.1175,1.104111 1.299,1.16906 1.299,2.922649 0,2.208224 -1.5588,4.026761 -1.5587,1.818537 -3.7669,2.208224 z"
             style="font-family:cmti12;-inkscape-font-specification:cmti12"
             id="path208" /><path
             d="m 1257.1534,-110.03301 q -5.6505,0 -10.002,-2.92265 -4.2865,-2.98759 -6.5597,-7.85867 -2.2082,-4.93603 -2.2082,-10.71638 0,-6.29994 2.6628,-13.1844 2.6629,-6.94941 7.2092,-12.66481 4.6113,-5.7154 10.6515,-9.15763 6.0401,-3.44223 12.7297,-3.44223 5.7804,0 10.0669,3.05254 4.3515,2.9876 6.4948,7.85868 2.2082,4.87108 2.2082,10.65143 0,8.5731 -4.5463,17.60084 -4.5464,9.02774 -12.2751,14.93798 -7.6639,5.8453 -16.4318,5.8453 z m 0.2598,-3.18244 q 7.3391,0 12.7947,-7.01435 5.4556,-7.01436 8.3133,-16.69158 2.8577,-9.67721 2.8577,-16.56168 0,-5.26076 -2.533,-9.28752 -2.468,-4.02676 -7.469,-4.02676 -7.404,0 -12.8596,7.01435 -5.4556,7.01436 -8.3133,16.69158 -2.7928,9.67721 -2.7928,16.62662 0,5.26077 2.468,9.28753 2.533,3.96181 7.534,3.96181 z"
             style="font-family:cmti12;-inkscape-font-specification:cmti12"
             id="path210" /><path
             d="m 1311.697,-113.34534 q 0,-0.77938 0.1299,-1.16906 l 10.002,-40.07277 q 1.0391,-4.67624 1.0391,-7.14425 0,-5.06592 -3.4422,-5.06592 -1.8185,0 -3.3773,1.94843 -1.5587,1.94843 -2.7278,5.00098 -1.1041,3.05254 -1.8185,5.78035 -0.6495,2.7278 -1.1691,4.67623 -0.3247,0.97422 -0.9092,0.97422 h -2.4031 q -0.9093,0 -0.9093,-1.3639 0.5196,-2.01338 1.5588,-5.91025 1.1041,-3.96181 2.5979,-7.14425 1.5587,-3.18244 3.8968,-5.13087 2.3382,-2.01338 5.5206,-2.01338 4.2216,0 7.2742,2.59791 3.0525,2.59791 3.637,6.68961 6.7546,-9.28752 15.6524,-9.28752 4.9361,0 8.8979,1.94843 4.0267,1.94843 4.0267,6.29993 0,2.8577 -1.8185,4.93603 -1.8185,2.07833 -4.5463,2.07833 -1.8186,0 -3.1175,-1.10411 -1.299,-1.10412 -1.299,-2.85771 0,-2.14327 1.3639,-3.83191 1.3639,-1.75359 3.4422,-2.27317 -2.468,-2.01338 -7.2092,-2.01338 -9.3524,0 -16.4967,15.97714 l -9.1576,36.69548 q -0.5196,1.81854 -1.8835,2.92265 -1.3639,1.16906 -3.1824,1.16906 -1.4938,0 -2.533,-0.90927 -1.0392,-0.90926 -1.0392,-2.40306 z"
             style="font-family:cmti12;-inkscape-font-specification:cmti12"
             id="path212" /><path
             d="m 1421.7416,-121.7236 q 0,-2.33812 0.5196,-4.09171 l 9.5473,-38.44907 h -12.5998 q -0.4547,0 -0.7794,-0.45464 -0.3248,-0.51958 -0.3248,-1.03916 l 0.5196,-2.07833 q 0.3897,-0.84432 1.1041,-0.84432 h 13.1844 l 5.4556,-21.82244 q 0.5196,-1.68865 1.8835,-2.79276 1.3639,-1.16906 3.1175,-1.16906 1.5588,0 2.5979,0.90927 1.0392,0.90927 1.0392,2.40307 0,0.77937 -0.1299,1.10411 l -5.3257,21.36781 h 12.3401 q 0.4546,0 0.7793,0.51958 0.3248,0.45464 0.3248,0.84432 l -0.5846,2.14328 q 0,0.90927 -1.0391,0.90927 h -12.9246 l -9.6772,38.83875 q -1.1042,4.09171 -1.1042,7.20921 0,5.00097 3.5072,5.00097 5.4556,0 9.0927,-5.13087 3.702,-5.13087 6.4298,-12.27513 0.3248,-0.90926 0.9743,-0.90926 h 2.403 q 0.3897,0 0.6495,0.38968 0.2598,0.38969 0.2598,0.90927 -7.8587,20.19875 -20.0689,20.19875 -5.0009,0 -8.1184,-3.31233 -3.0526,-3.37729 -3.0526,-8.37826 z"
             style="font-family:cmti12;-inkscape-font-specification:cmti12"
             id="path214" /><path
             d="m 1464.0758,-113.47524 q 0,-0.64948 0.1299,-0.90927 l 19.2895,-77.41772 q 0.6494,-2.92265 0.6494,-3.57213 0,-2.40306 -8.5081,-2.40306 -0.4547,0 -0.7794,-0.45464 -0.3247,-0.51958 -0.3247,-1.03916 l 0.5196,-2.07833 q 0.3896,-0.84432 1.1041,-0.84432 l 17.1462,-1.42885 h 0.3897 q 0.1948,0.0649 0.3896,0.12989 0.2598,0.065 0.2598,0.2598 0.3248,0.97421 0.3248,0.90926 l -10.2618,40.98204 q 7.469,-8.63805 17.5359,-8.63805 6.235,0 9.8071,3.63707 3.6371,3.57213 3.6371,9.93701 0,5.84529 -2.533,13.89882 -2.468,7.98857 -5.9751,17.08125 -1.8186,5.39067 -2.0134,8.63806 0,3.57212 2.7927,3.57212 3.3773,0 5.6505,-2.53296 2.2732,-2.53296 3.4422,-5.39066 1.234,-2.8577 2.468,-6.55973 1.234,-3.70202 1.7536,-3.83191 h 2.4031 q 0.3897,0 0.6495,0.38968 0.2597,0.38969 0.2597,0.90927 -1.169,4.87108 -3.3772,9.41743 -2.1433,4.48139 -5.5855,7.66383 -3.4423,3.11749 -7.9237,3.11749 -4.4164,0 -7.2092,-2.98759 -2.7278,-3.05255 -2.7278,-7.469 0,-2.33812 0.9093,-5.32571 3.702,-9.74216 6.2999,-18.25032 2.5979,-8.50816 2.5979,-14.22356 0,-3.44223 -1.2989,-5.97519 -1.234,-2.53296 -4.4165,-2.53296 -6.8844,0 -11.7555,5.00097 -4.8061,5.00098 -8.4432,12.92461 l -8.768,35.00684 q -0.3896,1.55874 -1.8185,2.66285 -1.4289,1.16906 -3.1175,1.16906 -1.4938,0 -2.533,-0.90927 -1.0391,-0.90926 -1.0391,-2.53296 z"
             style="font-family:cmti12;-inkscape-font-specification:cmti12"
             id="path216" /><path
             d="m 1558.7479,-110.03301 q -6.0402,0 -10.1319,-3.31233 -4.0917,-3.37729 -6.1051,-8.63805 -2.0134,-5.32572 -2.0134,-11.04112 0,-6.75457 2.3382,-13.24934 2.3381,-6.55973 6.8195,-12.01534 4.5463,-5.45561 10.5215,-8.5731 6.0402,-3.11749 13.0545,-3.11749 5.2608,0 9.0927,2.98759 3.8319,2.92265 3.8319,8.18342 0,10.71638 -10.1318,13.83387 -10.0669,3.05255 -24.0307,3.05255 h -0.3247 q -0.7794,3.24738 -1.1691,5.26076 -0.3897,2.01338 -0.7144,4.61129 -0.3248,2.53297 -0.3248,4.61129 0,5.52056 2.2732,9.87206 2.2732,4.3515 7.2742,4.3515 7.1442,0 13.4441,-3.83191 6.3649,-3.89687 10.9113,-10.13185 h 1.4288 q 1.7536,1.49379 1.7536,2.14327 0,0.38969 -0.1299,0.51958 -4.8711,6.68962 -12.2102,10.58649 -7.2741,3.89686 -15.4575,3.89686 z m -6.235,-35.07178 q 11.4308,0 20.0039,-2.53297 8.5731,-2.53296 8.5731,-11.17101 0,-3.50718 -2.4031,-5.7154 -2.3381,-2.27317 -5.7154,-2.27317 -7.8587,0 -12.9895,6.42982 -5.066,6.42983 -7.469,15.26273 z"
             style="font-family:cmti12;-inkscape-font-specification:cmti12"
             id="path218" /></g><g
           aria-label="Mathematical Sciences"
           transform="scale(1,-1)"
           id="text902"
           style="font-size:232.97px;font-family:Garamond;-inkscape-font-specification:Garamond;fill:#176fc1;stroke-width:9.7258"><path
             d="m -359.5194,5.619741 c -7.22207,-14.9100801 -13.04632,-29.35422 -12.11444,-38.44005 -7.68801,0.69891 -13.9782,0.69891 -19.33651,0.69891 -5.82425,0 -11.41553,-0.23297 -18.40463,-0.69891 -1.86376,0.93188 -2.09673,4.42643 -0.93188,5.82425 l 3.72752,0.46594 c 14.21117,1.86376 16.07493,5.35831 15.60899,20.0354199 -0.46594,12.8133501 -1.39782,32.6158001 -2.56267,51.9523101 -1.39782,23.06403 -2.56267,35.87738 -3.96049,51.2534 -1.39782,16.307899 -4.6594,17.705719 -14.44414,19.103539 l -5.12534,0.69891 c -1.39782,1.16485 -0.93188,4.6594 0.46594,5.82425 7.92098,-0.46594 16.3079,-0.69891 23.76294,-0.69891 8.85286,0 17.93869,0.23297 25.85967,0.69891 1.63079,-0.69891 1.86376,-4.42643 0.23297,-5.82425 l -8.85286,-0.69891 c -9.08583,-0.69891 -10.48365,-4.42643 -10.48365,-21.666209 0,-19.80245 0.93188,-40.53678 1.63079,-54.74795 0.69891,-13.51226 1.39782,-27.02452 2.3297,-41.4686601 h 0.46594 c 5.12534,10.7166201 10.01771,22.8310601 14.91008,33.5476801 l 20.9673,44.96321 c 5.35831,11.41553 16.54087,34.246589 20.50136,46.593999 0.46594,0.69891 1.63079,0.93188 2.09673,0.93188 0.93188,0 1.86376,-0.23297 2.3297,-0.93188 4.19346,-10.71662 14.67711,-32.615799 25.16076,-53.117159 l 20.73433,-40.76975 c 4.6594,-9.08583 13.51226,-27.7234301 15.14305,-30.2861001 h 0.46594 l 0.69891,97.1484901 c 0,14.910079 0,18.637599 -11.41553,19.802449 l -6.75613,0.69891 c -1.39782,1.39782 -1.16485,4.6594 0.46594,5.82425 9.55177,-0.46594 20.03542,-0.69891 28.18937,-0.69891 8.38692,0 17.93869,0.23297 27.49046,0.69891 1.63079,-0.93188 1.86376,-4.42643 0.46594,-5.82425 l -7.45504,-0.69891 c -10.94959,-0.93188 -10.71662,-7.22207 -11.41553,-18.870569 -1.86376,-33.54768 -2.09673,-76.64713 -2.56267,-101.3419501 -0.23297,-16.3078999 1.63079,-20.7343299 16.3079,-22.1321499 l 4.89237,-0.46594 c 1.16485,-0.93188 1.16485,-4.89237 -0.23297,-5.82425 -7.22207,0.46594 -14.91008,0.69891 -20.73433,0.69891 -4.6594,0 -9.55177,0 -17.47275,-0.69891 -0.46594,10.71662 -7.22207,23.5299699 -17.70572,44.73024 l -21.89918,44.49727 c -5.82425,11.88147 -11.6485,23.99591 -17.93869,34.9455 h -0.46594 c -5.59128,-10.25068 -10.71662,-20.9673 -16.07493,-31.91689 z"
             style="font-family:'Adobe Garamond Pro';-inkscape-font-specification:'Adobe Garamond Pro'"
             id="path239" /><path
             d="m -201.91727,83.431721 c -14.91008,5.35831 -19.33651,10.71662 -19.33651,19.802449 0,6.52316 2.79564,12.34741 7.22207,16.3079 3.96049,3.49455 9.55177,5.35831 16.3079,5.35831 6.52316,0 11.6485,-3.02861 16.77384,-5.82425 4.6594,-2.56267 7.45504,-4.6594 9.08583,-4.6594 1.39782,0 2.79564,1.86376 3.72752,3.26158 3.96049,5.12534 9.55177,7.22207 15.14305,7.22207 11.41553,0 19.56948,-9.08583 19.56948,-10.25068 0,-1.63079 -0.69891,-3.02861 -1.63079,-3.02861 -0.69891,0 -1.86376,0.93188 -3.02861,1.63079 -1.39782,0.69891 -3.49455,1.39782 -5.82425,1.39782 -9.08583,0 -11.18256,-9.55177 -10.71662,-20.268389 l 1.39782,-40.53678 c 0.69891,-17.47275 -7.45504,-27.25749 -24.22888,-27.25749 -17.00681,0 -43.33242,16.54087 -43.33242,28.65531 0,2.09673 1.16485,3.26158 3.26158,3.26158 3.49455,0 9.78474,-1.63079 13.27929,-4.42643 1.86376,-1.39782 2.09673,-4.19346 2.3297,-7.92098 0.46594,-7.22207 8.38692,-10.48365 14.91008,-10.48365 14.44414,0 17.23978,11.6485 17.00681,20.26839 l -0.23297,10.71662 c 0,3.49455 -0.46594,5.59128 -3.96049,6.75613 z m -1.39782,17.006809 c 0,-9.085829 6.75613,-12.580379 20.50136,-17.239779 4.19346,-1.39782 8.15395,-2.3297 9.55177,-2.3297 1.39782,0 2.3297,0.46594 2.3297,3.02861 l -0.46594,13.74523 c -0.23297,4.892369 -0.23297,8.153949 -3.02861,10.949589 -2.3297,2.3297 -9.55177,5.82425 -14.21117,5.82425 -11.88147,0 -14.67711,-10.01771 -14.67711,-13.9782 z"
             style="font-family:'Adobe Garamond Pro';-inkscape-font-specification:'Adobe Garamond Pro'"
             id="path241" /><path
             d="m -66.501386,39.633361 c 2.09673,-1.39782 2.56267,-7.68801 -0.23297,-9.78474 h -25.85967 c -3.96049,0 -4.19346,-0.23297 -4.19346,-4.42643 v -10.48365 c -0.93188,-1.63079 -3.727524,-1.63079 -4.892374,-1.16485 -2.3297,4.6594 -6.75613,10.94959 -9.78474,13.74523 -2.3297,2.09673 -8.15395,5.12534 -14.91008,7.22207 -0.93188,1.39782 -0.69891,3.96049 0.69891,4.89237 h 6.52316 c 4.6594,0 4.89237,0.46594 4.89237,6.75613 v 53.35013 c 0,13.978199 4.19346,25.160759 24.228884,25.160759 11.88147,0 20.26839,-5.82425 24.46185,-10.71662 0.46594,-1.39782 -0.46594,-3.96049 -2.3297,-3.96049 -0.69891,0 -3.72752,2.56267 -5.82425,3.26158 -1.86376,0.69891 -3.96049,1.16485 -6.29019,1.16485 -15.37602,0 -17.00681,-12.34741 -17.00681,-25.859669 v -43.56539 c 0,-4.89237 0.23297,-5.59128 4.19346,-5.59128 z"
             style="font-family:'Adobe Garamond Pro';-inkscape-font-specification:'Adobe Garamond Pro'"
             id="path243" /><path
             d="m -46.350599,95.546161 c 0,16.773839 -0.23297,19.336509 -8.85286,20.268389 l -5.82425,0.69891 c -1.63079,1.16485 -1.16485,5.12534 0.46594,5.82425 7.45504,-0.46594 14.44414,-0.69891 22.83106,-0.69891 8.15395,0 14.91008,0.23297 21.89918,0.69891 1.63079,-0.69891 2.09673,-4.89237 0.46594,-5.82425 l -4.89237,-0.69891 c -8.38692,-1.16485 -8.85286,-3.49455 -8.85286,-20.268389 v -39.13896 c 0,-8.15395 0.69891,-9.3188 4.89237,-12.81335 4.19346,-3.49455 10.25068,-6.29019 18.1716601,-6.29019 14.9100801,0 22.1321499,10.01771 22.1321499,24.92779 v 33.31471 c 0,16.773839 -0.23297,18.870569 -8.8528598,20.268389 l -4.6594001,0.69891 c -1.63078997,1.16485 -1.16485,5.12534 0.46594,5.82425 6.2901901,-0.46594 13.2792899,-0.69891 21.6662099,-0.69891 8.15395,0 14.91008,0.23297 23.297,0.69891 1.63079,-0.69891 2.09673,-4.6594 0.46594,-5.82425 l -6.29019,-0.69891 c -8.38692,-0.93188 -8.85286,-3.49455 -8.85286,-20.268389 v -38.90599 c 0,-16.3079 -7.92098,-30.05313 -30.0531299,-30.05313 -11.88147,0 -23.0640301,5.59128 -31.4509501,12.11444 -0.69891,-0.46594 -0.93188,-2.3297 -0.93188,-4.42643 v -48.9237 c 0,-10.25068 0.46594,-21.89918 0.69891,-28.88828 -0.46594,-0.93188 -1.39782,-1.39782 -2.3297,-1.39782 -8.38692,4.42643 -19.33651,7.92098 -25.16076,9.78474 -1.16485,0.69891 -1.16485,3.96049 0,4.6594 l 2.3297,1.39782 c 6.9891,4.19346 7.22207,5.59128 7.22207,19.3365099 z"
             style="font-family:'Adobe Garamond Pro';-inkscape-font-specification:'Adobe Garamond Pro'"
             id="path245" /><path
             d="m 125.40896,61.998481 c 9.78474,0 13.04632,-0.23297 13.74523,-1.63079 0.46594,-0.93188 0.93188,-2.79564 0.93188,-6.05722 0,-13.9782 -13.04632,-27.72343 -33.08174,-27.72343 -27.956399,0 -46.826969,23.99591 -46.826969,52.65122 0,10.25068 2.79564,21.200269 9.78474,30.286099 6.75613,8.85286 18.6376,15.37602 33.780649,15.37602 12.11444,0 28.88828,-5.82425 36.57629,-21.66621 -0.23297,-2.09673 -1.86376,-3.494549 -4.19346,-2.79564 -7.22207,9.08583 -13.74523,11.41553 -21.43324,11.41553 -24.927789,0 -38.673019,-20.035419 -38.673019,-43.565389 0,-5.82425 0.23297,-6.29019 6.29019,-6.29019 z m -45.196179,-6.9891 c -1.63079,0 -1.63079,-0.69891 -1.63079,-1.16485 0.23297,-7.68801 12.11444,-20.26839 25.859669,-20.26839 13.51226,0 17.93869,8.15395 17.93869,14.67711 0,3.02861 -0.69891,3.96049 -1.39782,4.42643 -1.86376,1.39782 -6.9891,2.3297 -24.228879,2.3297 z"
             style="font-family:'Adobe Garamond Pro';-inkscape-font-specification:'Adobe Garamond Pro'"
             id="path247" /><path
             d="m 295.35863,95.546161 c 0,16.773839 -0.23297,18.870569 -8.85286,20.268389 l -4.19346,0.69891 c -1.63079,1.16485 -1.16485,5.12534 0.46594,5.82425 6.52316,-0.46594 12.81335,-0.69891 21.20027,-0.69891 8.15395,0 14.91008,0.23297 22.59809,0.69891 1.63079,-0.69891 2.09673,-4.6594 0.46594,-5.82425 l -5.59128,-0.69891 c -8.38692,-1.16485 -8.85286,-3.49455 -8.85286,-20.268389 v -40.07084 c 0,-16.07493 -9.08583,-28.88828 -27.72343,-28.88828 -10.94959,0 -22.36512,5.35831 -31.68392,11.88147 -2.09673,1.39782 -3.72752,2.3297 -5.82425,1.86376 -6.52316,-9.55177 -13.04632,-13.74523 -24.69482,-13.74523 -11.18256,0 -22.13215,5.59128 -30.98501,11.88147 -1.63079,0 -2.56267,-1.16485 -2.56267,-2.56267 0,-2.09673 0,-5.59128 0.46594,-10.94959 -0.46594,-1.16485 -1.63079,-1.63079 -2.56267,-1.63079 -4.6594,3.49455 -17.93869,9.55177 -23.297,11.41553 -1.16485,0.69891 -1.16485,3.26158 -0.23297,4.19346 l 2.09673,1.39782 c 6.29019,4.19346 6.29019,5.35831 6.29019,14.44414 v 40.76975 c 0,16.773839 -0.23297,19.103539 -8.85286,20.268389 l -5.59128,0.69891 c -1.63079,1.16485 -1.16485,5.12534 0.46594,5.82425 7.22207,-0.46594 14.21117,-0.69891 22.59809,-0.69891 8.15395,0 14.91008,0.23297 21.20027,0.69891 1.63079,-0.69891 2.09673,-4.6594 0.46594,-5.82425 l -4.19346,-0.69891 c -8.38692,-1.39782 -8.85286,-3.49455 -8.85286,-20.268389 v -36.11035 c 0,-7.45504 1.16485,-10.48365 3.49455,-13.27929 3.49455,-4.19346 10.01771,-8.38692 19.56948,-8.38692 14.44414,0 21.43324,8.38692 21.43324,23.99591 v 33.78065 c 0,16.773839 -0.23297,18.870569 -8.85286,20.268389 l -4.19346,0.69891 c -1.63079,1.16485 -1.16485,5.12534 0.46594,5.82425 6.52316,-0.46594 12.81335,-0.69891 21.20027,-0.69891 8.15395,0 14.91008,0.23297 21.89918,0.69891 1.63079,-0.69891 2.09673,-4.6594 0.46594,-5.82425 l -4.89237,-0.69891 C 251.3273,114.6497 250.86136,112.32 250.86136,95.546161 v -35.64441 c 0,-8.15395 0.69891,-10.48365 3.49455,-13.9782 3.26158,-4.19346 10.48365,-8.15395 19.33651,-8.15395 14.67711,0 21.66621,8.15395 21.66621,23.99591 z"
             style="font-family:'Adobe Garamond Pro';-inkscape-font-specification:'Adobe Garamond Pro'"
             id="path249" /><path
             d="m 356.16362,83.431721 c -14.91008,5.35831 -19.33651,10.71662 -19.33651,19.802449 0,6.52316 2.79564,12.34741 7.22207,16.3079 3.96049,3.49455 9.55177,5.35831 16.3079,5.35831 6.52316,0 11.6485,-3.02861 16.77384,-5.82425 4.6594,-2.56267 7.45504,-4.6594 9.08583,-4.6594 1.39782,0 2.79564,1.86376 3.72752,3.26158 3.96049,5.12534 9.55177,7.22207 15.14305,7.22207 11.41553,0 19.56948,-9.08583 19.56948,-10.25068 0,-1.63079 -0.69891,-3.02861 -1.63079,-3.02861 -0.69891,0 -1.86376,0.93188 -3.02861,1.63079 -1.39782,0.69891 -3.49455,1.39782 -5.82425,1.39782 -9.08583,0 -11.18256,-9.55177 -10.71662,-20.268389 l 1.39782,-40.53678 c 0.69891,-17.47275 -7.45504,-27.25749 -24.22888,-27.25749 -17.00681,0 -43.33242,16.54087 -43.33242,28.65531 0,2.09673 1.16485,3.26158 3.26158,3.26158 3.49455,0 9.78474,-1.63079 13.27929,-4.42643 1.86376,-1.39782 2.09673,-4.19346 2.3297,-7.92098 0.46594,-7.22207 8.38692,-10.48365 14.91008,-10.48365 14.44414,0 17.23978,11.6485 17.00681,20.26839 l -0.23297,10.71662 c 0,3.49455 -0.46594,5.59128 -3.96049,6.75613 z m -1.39782,17.006809 c 0,-9.085829 6.75613,-12.580379 20.50136,-17.239779 4.19346,-1.39782 8.15395,-2.3297 9.55177,-2.3297 1.39782,0 2.3297,0.46594 2.3297,3.02861 l -0.46594,13.74523 c -0.23297,4.892369 -0.23297,8.153949 -3.02861,10.949589 -2.3297,2.3297 -9.55177,5.82425 -14.21117,5.82425 -11.88147,0 -14.67711,-10.01771 -14.67711,-13.9782 z"
             style="font-family:'Adobe Garamond Pro';-inkscape-font-specification:'Adobe Garamond Pro'"
             id="path251" /><path
             d="m 491.57942,39.633361 c 2.09673,-1.39782 2.56267,-7.68801 -0.23297,-9.78474 h -25.85967 c -3.96049,0 -4.19346,-0.23297 -4.19346,-4.42643 v -10.48365 c -0.93188,-1.63079 -3.72752,-1.63079 -4.89237,-1.16485 -2.3297,4.6594 -6.75613,10.94959 -9.78474,13.74523 -2.3297,2.09673 -8.15395,5.12534 -14.91008,7.22207 -0.93188,1.39782 -0.69891,3.96049 0.69891,4.89237 h 6.52316 c 4.6594,0 4.89237,0.46594 4.89237,6.75613 v 53.35013 c 0,13.978199 4.19346,25.160759 24.22888,25.160759 11.88147,0 20.26839,-5.82425 24.46185,-10.71662 0.46594,-1.39782 -0.46594,-3.96049 -2.3297,-3.96049 -0.69891,0 -3.72752,2.56267 -5.82425,3.26158 -1.86376,0.69891 -3.96049,1.16485 -6.29019,1.16485 -15.37602,0 -17.00681,-12.34741 -17.00681,-25.859669 v -43.56539 c 0,-4.89237 0.23297,-5.59128 4.19346,-5.59128 z"
             style="font-family:'Adobe Garamond Pro';-inkscape-font-specification:'Adobe Garamond Pro'"
             id="path253" /><path
             d="m 514.05991,95.546161 c 0,16.773839 -0.23297,19.103539 -8.85286,20.268389 l -4.89237,0.69891 c -1.63079,1.16485 -1.16485,5.12534 0.46594,5.82425 6.52316,-0.46594 13.51226,-0.69891 21.89918,-0.69891 8.15395,0 14.91008,0.23297 21.89918,0.69891 1.63079,-0.69891 2.09673,-4.6594 0.46594,-5.82425 l -4.89237,-0.69891 c -8.38692,-1.16485 -8.85286,-3.49455 -8.85286,-20.268389 v -41.9346 c 0,-9.55177 0.46594,-20.73433 0.93188,-28.88828 -0.23297,-0.93188 -1.16485,-1.39782 -2.3297,-1.39782 -5.35831,3.49455 -18.6376,9.55177 -23.99591,11.41553 -1.16485,0.69891 -1.16485,3.26158 -0.23297,4.19346 l 2.09673,1.39782 c 6.29019,4.19346 6.29019,5.35831 6.29019,14.44414 z m 7.68801,-119.28064 c -6.9891,0 -12.58038,4.89237 -12.58038,12.58038 0,6.2901899 4.6594,11.64849994 11.88147,11.64849994 6.52316,0 12.34741,-3.72752004 12.34741,-12.11443994 0,-6.52316 -4.6594,-12.11444 -11.6485,-12.11444 z"
             style="font-family:'Adobe Garamond Pro';-inkscape-font-specification:'Adobe Garamond Pro'"
             id="path255" /><path
             d="m 609.34458,26.587041 c -38.67302,0 -56.37874,26.79155 -56.37874,51.95231 0,15.14305 5.35831,26.558579 13.51226,34.479559 8.15395,7.92098 19.56948,11.88147 31.91689,11.88147 13.51226,0 30.98501,-6.52316 38.90599,-23.76294 -0.23297,-2.096729 -2.3297,-3.727519 -4.19346,-3.261579 -5.35831,7.920979 -12.34741,13.978199 -25.85967,13.978199 -24.92779,0 -37.50817,-21.666209 -37.50817,-39.837869 0,-24.69482 15.84196,-37.50817 32.14986,-37.50817 9.55177,0 18.17166,6.05722 23.297,12.34741 0.93188,1.16485 2.09673,1.63079 3.26158,1.63079 2.79564,0 5.12534,-4.42643 5.12534,-8.61989 0,-3.96049 -1.63079,-7.68801 -3.49455,-9.3188 -6.29019,-2.79564 -15.37602,-3.96049 -20.73433,-3.96049 z"
             style="font-family:'Adobe Garamond Pro';-inkscape-font-specification:'Adobe Garamond Pro'"
             id="path257" /><path
             d="m 669.09941,83.431721 c -14.91008,5.35831 -19.33651,10.71662 -19.33651,19.802449 0,6.52316 2.79564,12.34741 7.22207,16.3079 3.96049,3.49455 9.55177,5.35831 16.3079,5.35831 6.52316,0 11.6485,-3.02861 16.77384,-5.82425 4.6594,-2.56267 7.45504,-4.6594 9.08583,-4.6594 1.39782,0 2.79564,1.86376 3.72752,3.26158 3.96049,5.12534 9.55177,7.22207 15.14305,7.22207 11.41553,0 19.56948,-9.08583 19.56948,-10.25068 0,-1.63079 -0.69891,-3.02861 -1.63079,-3.02861 -0.69891,0 -1.86376,0.93188 -3.02861,1.63079 -1.39782,0.69891 -3.49455,1.39782 -5.82425,1.39782 -9.08583,0 -11.18256,-9.55177 -10.71662,-20.268389 l 1.39782,-40.53678 c 0.69891,-17.47275 -7.45504,-27.25749 -24.22888,-27.25749 -17.00681,0 -43.33242,16.54087 -43.33242,28.65531 0,2.09673 1.16485,3.26158 3.26158,3.26158 3.49455,0 9.78474,-1.63079 13.27929,-4.42643 1.86376,-1.39782 2.09673,-4.19346 2.3297,-7.92098 0.46594,-7.22207 8.38692,-10.48365 14.91008,-10.48365 14.44414,0 17.23978,11.6485 17.00681,20.26839 l -0.23297,10.71662 c 0,3.49455 -0.46594,5.59128 -3.96049,6.75613 z m -1.39782,17.006809 c 0,-9.085829 6.75613,-12.580379 20.50136,-17.239779 4.19346,-1.39782 8.15395,-2.3297 9.55177,-2.3297 1.39782,0 2.3297,0.46594 2.3297,3.02861 l -0.46594,13.74523 c -0.23297,4.892369 -0.23297,8.153949 -3.02861,10.949589 -2.3297,2.3297 -9.55177,5.82425 -14.21117,5.82425 -11.88147,0 -14.67711,-10.01771 -14.67711,-13.9782 z"
             style="font-family:'Adobe Garamond Pro';-inkscape-font-specification:'Adobe Garamond Pro'"
             id="path259" /><path
             d="m 773.99602,-14.648649 c 0,-10.25068 0.46594,-21.89918 0.69891,-28.88828 -0.46594,-0.93188 -1.39782,-1.39782 -2.3297,-1.39782 -8.38692,4.42643 -19.33651,7.92098 -25.16076,9.78474 -1.16485,0.69891 -1.16485,3.96049 0,4.6594 l 2.3297,1.39782 c 6.9891,4.19346 7.22207,5.59128 7.22207,19.3365099 V 95.546161 c 0,16.773839 -0.23297,19.103539 -8.85286,20.268389 l -5.35831,0.69891 c -1.63079,1.16485 -1.16485,5.12534 0.46594,5.82425 6.9891,-0.46594 13.9782,-0.69891 22.36512,-0.69891 8.15395,0 14.91008,0.23297 22.59809,0.69891 1.63079,-0.69891 2.09673,-4.6594 0.46594,-5.82425 l -5.59128,-0.69891 c -8.38692,-1.16485 -8.85286,-3.49455 -8.85286,-20.268389 z"
             style="font-family:'Adobe Garamond Pro';-inkscape-font-specification:'Adobe Garamond Pro'"
             id="path261" /><path
             d="m 949.65542,82.266871 c 0,-22.13215 -14.44414,-35.64441 -29.12125,-44.73024 l -18.6376,-11.6485 c -8.61989,-5.35831 -19.80245,-15.14305 -19.80245,-28.6553101 0,-10.7166199 4.89237,-25.8596699 27.72343,-25.8596699 22.36512,0 28.65531,15.14305 31.68392,26.3256099 1.16485,1.39782003 4.89237,0.69891 5.82425,-0.69891 0,-9.7847399 -2.09673,-22.8310599 -4.19346,-28.4223399 -1.86376,0 -5.12534,-0.46594 -8.15395,-1.39782 -6.05722,-1.63079 -14.44414,-3.02861 -21.66621,-3.02861 -30.2861,0 -47.52588,17.93869 -47.52588,40.07084 0,19.10354 13.51226,32.38283 25.16076,40.07084 l 22.13215,14.44414 c 17.00681,10.94959 19.10354,22.36512 19.10354,32.6158 0,13.978199 -9.55177,26.791549 -29.12125,26.791549 -27.02452,0 -36.57629,-22.831059 -40.07084,-34.712529 -0.93188,-1.39782 -4.42643,-0.93188 -5.59128,0.69891 0.46594,10.94959 3.49455,27.490459 6.29019,32.615799 4.42643,2.56267 16.77384,8.61989 36.34332,8.61989 30.2861,0 49.62261,-17.47275 49.62261,-43.099449 z"
             style="font-family:'Adobe Garamond Pro';-inkscape-font-specification:'Adobe Garamond Pro'"
             id="path263" /><path
             d="m 1024.2057,26.587041 c -38.673,0 -56.37872,26.79155 -56.37872,51.95231 0,15.14305 5.35831,26.558579 13.51226,34.479559 8.15395,7.92098 19.56946,11.88147 31.91686,11.88147 13.5123,0 30.985,-6.52316 38.906,-23.76294 -0.2329,-2.096729 -2.3297,-3.727519 -4.1934,-3.261579 -5.3583,7.920979 -12.3474,13.978199 -25.8597,13.978199 -24.9278,0 -37.50818,-21.666209 -37.50818,-39.837869 0,-24.69482 15.84198,-37.50817 32.14988,-37.50817 9.5518,0 18.1716,6.05722 23.297,12.34741 0.9319,1.16485 2.0967,1.63079 3.2616,1.63079 2.7956,0 5.1253,-4.42643 5.1253,-8.61989 0,-3.96049 -1.6308,-7.68801 -3.4945,-9.3188 -6.2902,-2.79564 -15.3761,-3.96049 -20.7344,-3.96049 z"
             style="font-family:'Adobe Garamond Pro';-inkscape-font-specification:'Adobe Garamond Pro'"
             id="path265" /><path
             d="m 1079.3057,95.546161 c 0,16.773839 -0.233,19.103539 -8.8529,20.268389 l -4.8924,0.69891 c -1.6308,1.16485 -1.1648,5.12534 0.466,5.82425 6.5231,-0.46594 13.5122,-0.69891 21.8992,-0.69891 8.1539,0 14.91,0.23297 21.8991,0.69891 1.6308,-0.69891 2.0968,-4.6594 0.466,-5.82425 l -4.8924,-0.69891 c -8.3869,-1.16485 -8.8529,-3.49455 -8.8529,-20.268389 v -41.9346 c 0,-9.55177 0.466,-20.73433 0.9319,-28.88828 -0.2329,-0.93188 -1.1648,-1.39782 -2.3297,-1.39782 -5.3583,3.49455 -18.6376,9.55177 -23.9959,11.41553 -1.1648,0.69891 -1.1648,3.26158 -0.233,4.19346 l 2.0968,1.39782 c 6.2902,4.19346 6.2902,5.35831 6.2902,14.44414 z m 7.688,-119.28064 c -6.9891,0 -12.5804,4.89237 -12.5804,12.58038 0,6.2901899 4.6594,11.64849994 11.8815,11.64849994 6.5231,0 12.3474,-3.72752004 12.3474,-12.11443994 0,-6.52316 -4.6594,-12.11444 -11.6485,-12.11444 z"
             style="font-family:'Adobe Garamond Pro';-inkscape-font-specification:'Adobe Garamond Pro'"
             id="path267" /><path
             d="m 1183.2104,61.998481 c 9.7847,0 13.0463,-0.23297 13.7452,-1.63079 0.4659,-0.93188 0.9319,-2.79564 0.9319,-6.05722 0,-13.9782 -13.0463,-27.72343 -33.0818,-27.72343 -27.9564,0 -46.8269,23.99591 -46.8269,52.65122 0,10.25068 2.7956,21.200269 9.7847,30.286099 6.7561,8.85286 18.6376,15.37602 33.7807,15.37602 12.1144,0 28.8882,-5.82425 36.5763,-21.66621 -0.233,-2.09673 -1.8638,-3.494549 -4.1935,-2.79564 -7.2221,9.08583 -13.7452,11.41553 -21.4332,11.41553 -24.9278,0 -38.6731,-20.035419 -38.6731,-43.565389 0,-5.82425 0.233,-6.29019 6.2902,-6.29019 z m -45.1962,-6.9891 c -1.6308,0 -1.6308,-0.69891 -1.6308,-1.16485 0.233,-7.68801 12.1144,-20.26839 25.8597,-20.26839 13.5122,0 17.9387,8.15395 17.9387,14.67711 0,3.02861 -0.6989,3.96049 -1.3979,4.42643 -1.8637,1.39782 -6.9891,2.3297 -24.2288,2.3297 z"
             style="font-family:'Adobe Garamond Pro';-inkscape-font-specification:'Adobe Garamond Pro'"
             id="path269" /><path
             d="m 1229.6858,95.546161 c 0,16.773839 -0.233,19.103539 -8.8529,20.268389 l -4.8923,0.69891 c -1.6308,1.16485 -1.1649,5.12534 0.4659,5.82425 6.5232,-0.46594 13.5123,-0.69891 21.8992,-0.69891 8.1539,0 14.9101,0.23297 21.2003,0.69891 1.6307,-0.69891 2.0967,-4.6594 0.4659,-5.82425 l -4.1935,-0.69891 c -8.3869,-1.39782 -8.8528,-3.49455 -8.8528,-20.268389 v -35.64441 c 0,-6.75613 0.4659,-10.01771 3.4945,-13.9782 3.2616,-4.42643 10.9496,-8.15395 19.8025,-8.15395 15.8419,0 21.8992,9.78474 21.8992,23.06403 v 34.71253 c 0,16.773839 -0.233,18.870569 -8.8529,20.268389 l -4.4264,0.69891 c -1.6308,1.16485 -1.1649,5.12534 0.4659,5.82425 6.2902,-0.46594 13.2793,-0.69891 21.6662,-0.69891 8.154,0 14.9101,0.23297 21.8992,0.69891 1.6308,-0.69891 2.0967,-4.6594 0.4659,-5.82425 l -5.1253,-0.69891 c -8.3869,-1.16485 -8.8529,-3.49455 -8.8529,-20.268389 v -40.07084 c 0,-15.60899 -7.9209,-28.88828 -27.2575,-28.88828 -11.8814,0 -22.831,5.82425 -32.6158,11.88147 -1.6307,0 -2.5626,-1.16485 -2.5626,-2.56267 0,-2.09673 0,-5.59128 0.4659,-10.94959 -0.4659,-1.16485 -1.6308,-1.63079 -2.5627,-1.63079 -4.6594,3.49455 -17.9386,9.55177 -23.297,11.41553 -1.1648,0.69891 -1.1648,3.26158 -0.2329,4.19346 l 2.0967,1.39782 c 6.2902,4.19346 6.2902,5.35831 6.2902,14.44414 z"
             style="font-family:'Adobe Garamond Pro';-inkscape-font-specification:'Adobe Garamond Pro'"
             id="path271" /><path
             d="m 1390.496,26.587041 c -38.673,0 -56.3787,26.79155 -56.3787,51.95231 0,15.14305 5.3583,26.558579 13.5122,34.479559 8.154,7.92098 19.5695,11.88147 31.9169,11.88147 13.5123,0 30.985,-6.52316 38.906,-23.76294 -0.233,-2.096729 -2.3297,-3.727519 -4.1935,-3.261579 -5.3583,7.920979 -12.3474,13.978199 -25.8596,13.978199 -24.9278,0 -37.5082,-21.666209 -37.5082,-39.837869 0,-24.69482 15.842,-37.50817 32.1499,-37.50817 9.5517,0 18.1716,6.05722 23.297,12.34741 0.9318,1.16485 2.0967,1.63079 3.2615,1.63079 2.7957,0 5.1254,-4.42643 5.1254,-8.61989 0,-3.96049 -1.6308,-7.68801 -3.4946,-9.3188 -6.2902,-2.79564 -15.376,-3.96049 -20.7343,-3.96049 z"
             style="font-family:'Adobe Garamond Pro';-inkscape-font-specification:'Adobe Garamond Pro'"
             id="path273" /><path
             d="m 1496.1458,61.998481 c 9.7847,0 13.0463,-0.23297 13.7452,-1.63079 0.466,-0.93188 0.9319,-2.79564 0.9319,-6.05722 0,-13.9782 -13.0463,-27.72343 -33.0817,-27.72343 -27.9564,0 -46.827,23.99591 -46.827,52.65122 0,10.25068 2.7956,21.200269 9.7847,30.286099 6.7562,8.85286 18.6376,15.37602 33.7807,15.37602 12.1144,0 28.8883,-5.82425 36.5763,-21.66621 -0.233,-2.09673 -1.8638,-3.494549 -4.1935,-2.79564 -7.222,9.08583 -13.7452,11.41553 -21.4332,11.41553 -24.9278,0 -38.673,-20.035419 -38.673,-43.565389 0,-5.82425 0.2329,-6.29019 6.2902,-6.29019 z m -45.1962,-6.9891 c -1.6308,0 -1.6308,-0.69891 -1.6308,-1.16485 0.233,-7.68801 12.1145,-20.26839 25.8597,-20.26839 13.5123,0 17.9387,8.15395 17.9387,14.67711 0,3.02861 -0.6989,3.96049 -1.3978,4.42643 -1.8638,1.39782 -6.9891,2.3297 -24.2289,2.3297 z"
             style="font-family:'Adobe Garamond Pro';-inkscape-font-specification:'Adobe Garamond Pro'"
             id="path275" /><path
             d="m 1563.1321,26.587041 c -17.7057,0 -31.6839,9.55177 -31.6839,26.55858 0,12.81335 9.5518,20.9673 23.064,28.65531 8.6199,4.89237 17.9387,10.71662 17.9387,21.433239 0,10.01771 -7.2221,14.91008 -15.609,14.91008 -13.2793,0 -20.7343,-11.18256 -24.6948,-23.995909 -1.1649,-1.39782 -4.1935,-1.16485 -5.3583,0.23297 -0.466,7.688009 0.9319,19.103539 2.7956,23.529969 5.8243,4.6594 13.9782,6.9891 24.9278,6.9891 17.2398,0 33.5477,-8.85286 33.5477,-26.558579 0,-16.54087 -11.4155,-24.46185 -23.7629,-31.45095 -8.154,-4.6594 -17.9387,-9.78474 -17.9387,-19.33651 0,-8.38692 5.8242,-14.21117 14.91,-14.21117 9.5518,0 16.5409,6.75613 20.5014,17.00681 1.1649,1.39782 4.6594,0.93188 5.5913,-0.69891 0,-6.29019 -1.6308,-13.74523 -3.7275,-18.87057 -2.0968,-1.86376 -10.7167,-4.19346 -20.5014,-4.19346 z"
             style="font-family:'Adobe Garamond Pro';-inkscape-font-specification:'Adobe Garamond Pro'"
             id="path277" /></g></g></g></g></svg>
