<?xml version="1.0" encoding="UTF-8"?>
<svg viewBox="0 0 182 96" version="1.1" xmlns="http://www.w3.org/2000/svg" xmlns:xlink="http://www.w3.org/1999/xlink">
    <!-- Generator: sketchtool 55.1 (78136) - https://sketchapp.com -->
    <title>C918072A-524D-45B3-A42C-8A015F39AD9E</title>
    <desc>Created with sketchtool.</desc>
    <defs>
        <polygon id="path-1" points="0.102447105 0.638465753 14.2584276 0.638465753 14.2584276 18.5865205 0.102447105 18.5865205"></polygon>
        <polygon id="path-3" points="0 96 181.277456 96 181.277456 0.486575342 0 0.486575342"></polygon>
    </defs>
    <g id="Page-1" stroke="none" stroke-width="1" fill="none" fill-rule="evenodd">
        <g id="Mobile" transform="translate(-22.000000, -4608.000000)">
            <g id="Group-48" transform="translate(22.000000, 4608.000000)">
                <path d="M10.3414805,37 L0,62 L2.4444963,62 L4.80715161,56.2122662 L18.1915067,56.2122662 L20.554162,62 L23,62 L12.6424196,37 L10.3414805,37 Z M11.5006708,39.7185014 L17.2577145,53.9264674 L5.72618562,53.9264674 L11.5006708,39.7185014 Z" id="Fill-1" fill="#3E5279"></path>
                <polygon id="Fill-2" fill="#3E5279" points="28 62 29 62 29 37 28 37"></polygon>
                <g id="Group-47">
                    <path d="M35.4640577,53.7970849 C35.4640577,55.8446466 36.0466517,57.4095781 37.2197302,58.4958247 C38.3928087,59.5820712 39.907816,60.1251945 41.7686973,60.1251945 C43.6072217,60.1251945 45.1130232,59.5110575 46.2834715,58.2827836 C47.4552349,57.0545096 48.0417742,55.5579616 48.0417742,53.7970849 C48.0417742,52.7594959 47.8681796,51.8336877 47.5183602,51.0144 C47.1672257,50.1964274 46.6977313,49.5375781 46.1072467,49.0352219 C45.5167621,48.5341808 44.8526313,48.1554411 44.1135392,47.9016329 C43.3797076,47.6438795 42.5972169,47.5189479 41.7686973,47.5189479 C41.1558558,47.5189479 40.5535352,47.5952219 39.9630506,47.7464548 C39.372566,47.9016329 38.800493,48.1462356 38.253407,48.4815781 C37.705006,48.8182356 37.2249906,49.2272219 36.8173064,49.7098521 C36.408307,50.1937973 36.0795294,50.7829479 35.8336038,51.4851945 C35.5850479,52.1821808 35.4640577,52.954126 35.4640577,53.7970849 M48.0720217,48.0804822 C48.7729756,48.9102904 49.3069104,49.7493041 49.6725111,50.6027836 C50.039427,51.456263 50.2209122,52.5188384 50.2209122,53.7891945 C50.2209122,55.4133041 49.8000769,56.9072219 48.9570911,58.2643726 C48.111475,59.6241534 46.9042036,60.5394411 45.3313315,61.018126 C46.872641,61.4613041 48.0549253,62.1596055 48.88476,63.1156603 C49.7119645,64.0677699 50.1262242,65.2565918 50.1262242,66.6768658 C50.1262242,67.7223452 49.8934497,68.6639342 49.4252704,69.5121534 C48.9597213,70.3551123 48.3350438,71.0455233 47.5525531,71.578126 C46.7726926,72.1107288 45.8863081,72.5197151 44.8947148,72.8037699 C43.9031216,73.0865096 42.8615541,73.228537 41.7686973,73.228537 C39.3699358,73.228537 37.3920097,72.5880986 35.8309735,71.3098521 C34.2712525,70.0289753 33.4979676,68.2917699 33.5084885,66.0969205 L35.7218194,66.0969205 C35.7099834,67.1397699 35.9979926,68.0419068 36.5845318,68.8033315 C37.1710711,69.5647562 37.9101632,70.1210301 38.8096987,70.4695233 C39.7079192,70.8193315 40.694252,70.9955507 41.7686973,70.9955507 C42.5551333,70.9955507 43.2968556,70.9113863 44.0017548,70.7456877 C44.7053389,70.579989 45.3563186,70.3314411 45.9533788,70.0000438 C46.5491238,69.6699616 47.0265089,69.2188932 47.3815887,68.6481534 C47.7366685,68.0760986 47.9128933,67.4198795 47.9128933,66.6768658 C47.9128933,65.9470027 47.7392988,65.2881534 47.3881643,64.7082082 C47.0383449,64.1256329 46.5688505,63.6587836 45.9770507,63.3116055 C45.3865662,62.9631123 44.7329563,62.7014137 44.0175362,62.5251945 C43.3021161,62.3463452 42.5551333,62.2595507 41.7686973,62.2595507 C39.1950261,62.2595507 37.1158365,61.5033863 35.5311284,59.9963178 C33.9464203,58.4879342 33.1534087,56.4193315 33.1534087,53.7865644 C33.1534087,52.4294137 33.407225,51.1985096 33.9148576,50.0912219 C34.4224902,48.9826192 35.0931966,48.0883726 35.9282917,47.4032219 C36.7594415,46.7207014 37.6773886,46.195989 38.6781877,45.8304 C39.6763565,45.466126 40.7074031,45.2820164 41.7686973,45.2820164 C42.586696,45.2820164 43.4454631,45.408263 44.3476289,45.6620712 C45.2511098,45.9171945 46.2913621,46.4550575 46.5912073,46.7022904 C46.8897374,46.9482082 47.6432957,47.5413041 48.0720217,48.0804822" id="Fill-3" fill="#3E5279"></path>
                    <path d="M55.8598428,54.3403397 C55.8598428,56.3379288 56.4463821,57.9475726 57.6273513,59.1679562 C58.8056903,60.3857096 60.325958,60.9945863 62.1881544,60.9945863 C64.0727077,60.9945863 65.5982358,60.3857096 66.7686841,59.1679562 C67.9351871,57.9475726 68.517781,56.3379288 68.517781,54.3403397 C68.517781,52.3559014 67.9272964,50.7239014 66.7423819,49.4390795 C65.5574674,48.1595178 64.0398299,47.5190795 62.1881544,47.5190795 C60.3364788,47.5190795 58.8188414,48.1595178 57.635242,49.4390795 C56.4490123,50.7239014 55.8598428,52.3559014 55.8598428,54.3403397 M53.5925924,54.3403397 C53.5925924,51.6839014 54.39744,49.5285041 56.0058201,47.8702027 C57.6168304,46.2132164 59.6749783,45.3847233 62.1881544,45.3847233 C64.6526714,45.3847233 66.6989832,46.2197918 68.3336655,47.8886137 C69.9670327,49.5574356 70.7837163,51.7102027 70.7837163,54.3429699 C70.7837163,56.9731068 69.9736083,59.1127233 68.3573375,60.7605041 C66.7423819,62.4069699 64.6855491,63.2302027 62.1881544,63.2302027 C59.719692,63.2302027 57.6694348,62.4096 56.040013,60.7683945 C54.409276,59.1285041 53.5925924,56.9862575 53.5925924,54.3403397" id="Fill-5" fill="#3E5279"></path>
                    <path d="M75.2537768,62.957589 L75.2537768,45.6920548 L77.4223939,45.6920548 L77.5578503,48.5207671 C78.0760038,47.4529315 78.8203564,46.6678356 79.7961683,46.1694247 C80.7706652,45.6683836 81.8240686,45.4185205 82.9576939,45.4185205 C83.7204579,45.4185205 84.3990549,45.5132055 84.9948,45.6986301 C85.5865997,45.8893151 86.198126,46.1983562 86.8267488,46.6336438 L85.7496734,48.5917808 C84.8856458,47.9671233 83.9111489,47.6554521 82.8235526,47.6554521 C81.3440533,47.6751781 80.0960135,48.2038356 79.0820633,49.2348493 C78.0681132,50.2671781 77.5578503,51.5625205 77.5578503,53.1248219 L77.5578503,62.957589 L75.2537768,62.957589 Z" id="Fill-7" fill="#3E5279"></path>
                    <path d="M97.3050229,47.7233096 L97.3050229,45.7441315 L100.933413,45.7441315 L100.933413,40.8625973 L103.330859,40.607474 L103.330859,45.7441315 L107.710177,45.7441315 L107.710177,47.7233096 L103.330859,47.7233096 L103.330859,57.4640219 C103.330859,58.6475836 103.549167,59.5431452 103.988414,60.1520219 C104.425031,60.7608986 105.212782,61.0633644 106.343777,61.0633644 C107.089445,61.0633644 107.950842,60.8424329 108.920079,60.3992548 L109.671007,62.3587068 C108.455845,62.918926 107.32485,63.1964055 106.272761,63.1964055 L106.187279,63.1964055 C102.68514,63.1964055 100.933413,61.285611 100.933413,57.4640219 L100.933413,47.7233096 L97.3050229,47.7233096 Z" id="Fill-9" fill="#3E5279"></path>
                    <path d="M114.556905,62.957589 L114.556905,38.4920548 L116.832046,38.4920548 L116.832046,48.6943562 C118.094552,46.578411 120.044861,45.4974247 122.677712,45.4527123 C124.955483,45.4527123 126.694059,46.1589041 127.889495,47.5686575 C129.083615,48.978411 129.68199,50.8839452 129.68199,53.2826301 L129.68199,62.957589 L127.404219,62.957589 L127.404219,53.2826301 C127.404219,51.5072877 126.983384,50.1330411 126.143028,49.1559452 C125.301357,48.1775342 124.058578,47.6870137 122.40943,47.6870137 C120.793159,47.6870137 119.466212,48.2590685 118.424645,49.4031781 C117.387023,50.5446575 116.868869,51.9649315 116.868869,53.6600548 L116.868869,62.957589 L114.556905,62.957589 Z" id="Fill-11" fill="#3E5279"></path>
                    <path d="M136.276743,62.957589 L136.276743,45.6920548 L138.355933,45.6920548 L138.454566,48.4181918 C138.958254,47.3845479 139.660523,46.6204932 140.558743,46.1273425 C141.455648,45.6315616 142.436721,45.3843288 143.500645,45.3843288 C144.329165,45.3843288 145.106395,45.5105753 145.831021,45.7617534 C146.556962,46.0142466 147.234244,46.4495342 147.862866,47.0689315 C148.491489,47.6896438 148.957038,48.461589 149.255568,49.3900274 C149.784243,48.0723288 150.573309,47.0741918 151.628028,46.3982466 C152.682746,45.7236164 153.847934,45.3843288 155.124906,45.3843288 C157.201466,45.3843288 158.863765,46.0668493 160.117066,47.4318904 C161.369051,48.7969315 161.997674,50.6156712 161.997674,52.8920548 L161.997674,62.957589 L159.786973,62.957589 L159.786973,52.915726 C159.786973,51.3586849 159.360877,50.0883288 158.503425,49.1007123 C157.651234,48.114411 156.514978,47.6173151 155.095974,47.6173151 C153.675655,47.6173151 152.518357,48.1301918 151.620137,49.1506849 C150.721917,50.1724932 150.273464,51.4507397 150.273464,52.9814795 L150.273464,62.957589 L148.065393,62.957589 L148.065393,52.9814795 C148.065393,51.4507397 147.620886,50.1724932 146.733187,49.1506849 C145.846802,48.1301918 144.69345,47.6173151 143.274446,47.6173151 C141.855442,47.6173151 140.70209,48.1301918 139.817021,49.1506849 C138.929321,50.1724932 138.484814,51.4507397 138.484814,52.9814795 L138.484814,62.957589 L136.276743,62.957589 Z" id="Fill-13" fill="#3E5279"></path>
                    <g id="Group-17" transform="translate(167.019028, 44.712329)">
                        <mask id="mask-2" fill="white">
                            <use xlink:href="#path-1"></use>
                        </mask>
                        <g id="Clip-16"></g>
                        <path d="M0.102447105,15.2580822 L1.51093041,13.6523836 C2.16585542,14.5860822 3.0311981,15.2817534 4.10695846,15.7354521 C5.18271881,16.1930959 6.30713826,16.4324384 7.47627145,16.4547945 C8.00100053,16.4547945 8.50600294,16.4100822 8.9912787,16.3259178 C9.47786957,16.2404384 9.9592,16.0957808 10.43527,15.888 C10.9100249,15.6841644 11.292722,15.3816986 11.5820463,14.9832329 C11.8713706,14.5834521 12.0160328,14.1034521 12.0160328,13.5445479 C12.0160328,13.0974247 11.9266053,12.7121096 11.7503804,12.3807123 C11.578101,12.0506301 11.363738,11.7849863 11.1086065,11.5837808 C10.8561053,11.3838904 10.4931348,11.2076712 10.0223253,11.0538082 C9.54888554,10.9012603 9.11884442,10.7881644 8.73220194,10.7197808 C8.34687458,10.6513973 7.83529661,10.5619726 7.20141337,10.4501918 C6.67273896,10.358137 6.21639563,10.2792329 5.82975316,10.2108493 C5.44311068,10.1424658 5.00649401,10.0398904 4.51990314,9.90312329 C4.03331227,9.76767123 3.62299781,9.62038356 3.28632953,9.46783562 C2.94571592,9.31528767 2.60247209,9.11671233 2.25265271,8.87210959 C1.90151821,8.62750685 1.62139969,8.35791781 1.40835179,8.06071233 C1.19661901,7.76745205 1.01644887,7.41238356 0.877047166,7.00339726 C0.735015236,6.5970411 0.665314382,6.13939726 0.665314382,5.6409863 C0.665314382,4.78750685 0.856005398,4.02871233 1.23870254,3.36986301 C1.62139969,2.70969863 2.13692299,2.18367123 2.78395733,1.79046575 C3.43099168,1.39594521 4.14509666,1.10531507 4.92364205,0.910684932 C5.65747369,0.730520548 6.41892264,0.638465753 7.20667381,0.638465753 L7.3565964,0.638465753 C9.8960747,0.638465753 11.9752643,1.41830137 13.5889049,2.97665753 L12.2777397,4.51265753 C11.5702103,3.83013699 10.828488,3.36723288 10.053888,3.12920548 C9.27928789,2.88986301 8.39158833,2.76887671 7.38815905,2.76887671 L7.25664801,2.76887671 C6.47152706,2.76887671 5.76268252,2.86356164 5.13011439,3.04767123 C4.45546273,3.24230137 3.911007,3.55923288 3.4967472,3.99715068 C3.09300829,4.42323288 2.89705683,4.92953425 2.90757772,5.51473973 L2.90757772,5.60153425 C2.9180986,6.08679452 3.04829454,6.5049863 3.30079574,6.85347945 C3.55329695,7.20460274 3.92021277,7.48339726 4.40285831,7.69117808 C4.88681896,7.89764384 5.34184718,8.04493151 5.77451852,8.12909589 C6.20982008,8.21589041 6.74638515,8.32109589 7.38815905,8.44734247 C9.20564171,8.73008219 10.506286,9.02465753 11.2848313,9.32843836 C13.245661,10.166137 14.2385694,11.5890411 14.2596112,13.602411 C14.2490903,14.4703562 14.0478784,15.2370411 13.6546604,15.8985205 C13.2627575,16.56 12.7380284,17.0794521 12.0831034,17.4581918 C11.4281784,17.8382466 10.7127583,18.1196712 9.93158268,18.3050959 C9.15303729,18.4918356 8.32583281,18.5865205 7.45391458,18.5865205 C5.93233177,18.5865205 4.52516358,18.3143014 3.23504022,17.769863 C1.94491686,17.2267397 0.898088933,16.3890411 0.102447105,15.2580822" id="Fill-15" fill="#3E5279" mask="url(#mask-2)"></path>
                    </g>
                    <path d="M48.9194789,41.6449315 C48.8918616,41.6449315 48.8642443,41.6462466 48.837942,41.6475616 C48.2869108,41.693589 47.8739661,42.1775342 47.9186798,42.729863 C47.9633936,43.2808767 48.4302578,43.6990685 49.0010157,43.6477808 C49.2679832,43.6254247 49.5099635,43.5018082 49.6835581,43.2966575 C49.8571526,43.094137 49.9400046,42.8337534 49.9189628,42.5681096 L49.9189628,42.5667945 C49.896606,42.2998356 49.7716705,42.0565479 49.5678283,41.884274 C49.385028,41.7277808 49.1575139,41.6449315 48.9194789,41.6449315 M48.9155336,45.6230137 C47.384745,45.6230137 46.0801554,44.4433973 45.9525897,42.8903014 C45.8210786,41.2543562 47.0428163,39.8156712 48.6774986,39.6815342 C49.46788,39.619726 50.2398498,39.8656438 50.8461157,40.3811507 C51.4510665,40.8953425 51.8192975,41.6146849 51.8837379,42.4063562 C51.9494934,43.1980274 51.7009375,43.9686575 51.1880444,44.5749041 C50.6725211,45.1798356 49.9518406,45.5493699 49.1601441,45.6138082 C49.0772921,45.6203836 48.9970704,45.6230137 48.9155336,45.6230137" id="Fill-18" fill="#3E517A"></path>
                    <path d="M39.4992112,17.7868274 L39.4992112,8.06189589 L41.8374776,8.06189589 L41.8374776,17.7526356 C41.8374776,19.5384986 42.3385346,20.9258959 43.3419639,21.9161425 C44.3204061,22.8814027 45.664449,23.3653479 47.3727775,23.3653479 L47.4937676,23.3653479 C49.1455464,23.3653479 50.5027404,22.8024986 51.5679798,21.6768 C52.6332193,20.5511014 53.1671542,19.1466082 53.1671542,17.4633205 L53.1671542,8.06189589 L55.5054206,8.06189589 L55.5054206,25.3274301 L53.3026105,25.3274301 L53.2342248,22.4277041 C52.5398465,23.4850192 51.6626678,24.2727452 50.6013737,24.7895671 C49.54534,25.3077041 48.3814672,25.5772932 47.1189612,25.6009644 C44.8451352,25.6009644 43.0079259,24.9052932 41.604703,23.5113205 C40.2014801,22.1173479 39.4992112,20.2091836 39.4992112,17.7868274" id="Fill-20" fill="#3E5279"></path>
                    <path d="M63.2328781,16.6766466 C63.2328781,18.6742356 63.862816,20.3009753 65.1253221,21.5529205 C66.3878281,22.808811 67.9475491,23.4334685 69.8005398,23.4334685 C70.8697246,23.4334685 71.8402761,23.2414685 72.7095641,22.8561534 C73.5801672,22.4695233 74.2811211,21.9632219 74.8176862,21.3333041 C75.3529361,20.7033863 75.7645657,19.9814137 76.05389,19.1700164 C76.3458445,18.3586192 76.4891916,17.5353863 76.4891916,16.6950575 C76.4891916,15.8547288 76.3458445,15.0314959 76.05389,14.2200986 C75.7645657,13.4087014 75.3529361,12.6867288 74.8176862,12.056811 C74.2811211,11.4268932 73.5801672,10.9205918 72.7095641,10.5352767 C71.8402761,10.1486466 70.8697246,9.95664658 69.8005398,9.95664658 C67.9475491,9.95664658 66.3878281,10.578674 65.1253221,11.827989 C63.862816,13.075989 63.2328781,14.6922082 63.2328781,16.6766466 M60.8946117,16.6766466 C60.8946117,14.9184 61.2930902,13.3560986 62.088732,11.9936877 C62.8843738,10.6312767 63.9469831,9.59763288 65.2818202,8.88881096 C66.6087667,8.1773589 68.0948415,7.82360548 69.732154,7.82360548 C71.1314315,7.82360548 72.458378,8.14053699 73.7064178,8.77834521 C74.958403,9.41352329 75.898707,10.3169753 76.5233844,11.4873863 L76.5233844,8.06163288 L78.7248793,8.06163288 L78.7248793,25.3284822 L76.5575773,25.3284822 L76.5575773,21.868537 C75.8408421,23.1073315 74.8597697,24.0489205 73.6156752,24.6985644 C72.3676354,25.3468932 71.0630458,25.6690849 69.6979611,25.6690849 C67.1979362,25.6690849 65.1029652,24.8419068 63.4209389,23.1914959 C61.7362824,21.5371397 60.8946117,19.3672767 60.8946117,16.6766466" id="Fill-22" fill="#3E5279"></path>
                    <path d="M85.185228,25.3279562 L85.185228,8.06242192 L87.4222309,8.06242192 L87.4906166,10.9937096 C88.1823647,9.92587397 89.0516527,9.12499726 90.0984806,8.58976438 C91.1466237,8.05716164 92.2789338,7.78888767 93.495411,7.78888767 C95.8192111,7.78888767 97.6906133,8.46614795 99.1109326,9.82066849 C100.531252,11.1725589 101.240096,13.1070247 101.240096,15.6214356 L101.240096,25.3279562 L98.8018817,25.3279562 L98.8018817,15.6766685 C98.8018817,13.8487233 98.3034548,12.4508055 97.3079162,11.4789699 C96.3123776,10.5084493 94.9394022,10.0258192 93.18636,10.0258192 C91.5266906,10.0363397 90.1681815,10.6057644 89.1095176,11.7340932 C88.0521688,12.8650521 87.5208641,14.2695452 87.5208641,15.9475726 L87.5208641,25.3279562 L85.185228,25.3279562 Z" id="Fill-24" fill="#3E5279"></path>
                    <path d="M105.117437,10.0935452 L105.117437,8.11436712 L108.651138,8.11436712 L108.651138,3.23151781 L110.986775,2.97770959 L110.986775,8.11436712 L116.566788,8.11436712 L116.566788,10.0935452 L110.986775,10.0935452 L110.986775,19.8342575 C110.986775,21.0178192 111.198507,21.9133808 111.625918,22.5222575 C112.050699,23.1311342 112.817408,23.4336 113.920786,23.4336 C114.648042,23.4336 115.485767,23.2126685 116.431332,22.7694904 L117.162533,24.7289425 C115.978934,25.2891616 114.876871,25.5666411 113.853715,25.5666411 L113.768233,25.5666411 C110.355522,25.5666411 108.651138,23.6558466 108.651138,19.8342575 L108.651138,10.0935452 L105.117437,10.0935452 Z" id="Fill-26" fill="#3E5279"></path>
                    <path d="M121.042504,17.7868274 L121.042504,8.06189589 L123.38077,8.06189589 L123.38077,17.7526356 C123.38077,19.5384986 123.881827,20.9258959 124.885256,21.9161425 C125.863699,22.8814027 127.207742,23.3653479 128.91607,23.3653479 L129.03706,23.3653479 C130.688839,23.3653479 132.046033,22.8024986 133.111272,21.6768 C134.176512,20.5511014 134.710447,19.1466082 134.710447,17.4633205 L134.710447,8.06189589 L137.048713,8.06189589 L137.048713,25.3274301 L134.845903,25.3274301 L134.777517,22.4277041 C134.083139,23.4850192 133.20596,24.2727452 132.144666,24.7895671 C131.088633,25.3077041 129.92476,25.5772932 128.662254,25.6009644 C126.388428,25.6009644 124.551218,24.9052932 123.147996,23.5113205 C121.744773,22.1173479 121.042504,20.2091836 121.042504,17.7868274" id="Fill-28" fill="#3E5279"></path>
                    <path d="M143.49065,25.3279562 L143.49065,8.06242192 L145.613238,8.06242192 L145.714502,10.7885589 C146.22871,9.75491507 146.94676,8.99086027 147.863392,8.49770959 C148.780024,8.00192877 149.780824,7.75469589 150.867105,7.75469589 C151.714036,7.75469589 152.507048,7.88094247 153.247455,8.13212055 C153.989177,8.3846137 154.680925,8.81990137 155.321384,9.43929863 C155.964473,10.060011 156.439228,10.8319562 156.745649,11.7603945 C157.284844,10.4426959 158.092322,9.4445589 159.168082,8.7686137 C160.243842,8.09398356 161.435332,7.75469589 162.739922,7.75469589 C164.861195,7.75469589 166.557688,8.43721644 167.83729,9.80225753 C169.116893,11.1672986 169.758667,12.9860384 169.758667,15.2624219 L169.758667,25.3279562 L167.500622,25.3279562 L167.500622,15.2847781 C167.500622,13.7290521 167.06532,12.4586959 166.190772,11.4710795 C165.320169,10.4847781 164.158926,9.98768219 162.709674,9.98768219 C161.260423,9.98768219 160.076823,10.5005589 159.160191,11.5210521 C158.243559,12.5428603 157.784586,13.8211068 157.784586,15.3518466 L157.784586,25.3279562 L155.529171,25.3279562 L155.529171,15.3518466 C155.529171,13.8211068 155.076773,12.5428603 154.169347,11.5210521 C153.265866,10.5005589 152.086212,9.98768219 150.638276,9.98768219 C149.189024,9.98768219 148.010685,10.5005589 147.105889,11.5210521 C146.199778,12.5428603 145.746065,13.8211068 145.746065,15.3518466 L145.746065,25.3279562 L143.49065,25.3279562 Z" id="Fill-30" fill="#3E5279"></path>
                    <mask id="mask-4" fill="white">
                        <use xlink:href="#path-3"></use>
                    </mask>
                    <g id="Clip-33"></g>
                    <polygon id="Fill-32" fill="#949DAF" mask="url(#mask-4)" points="13.8047145 95.6817534 16.0206756 95.6817534 16.0206756 81.869589 13.8047145 81.869589"></polygon>
                    <polygon id="Fill-34" fill="#949DAF" mask="url(#mask-4)" points="25.8922893 95.6814904 25.8922893 81.869326 27.5730004 81.869326 35.4084286 91.6942027 35.4084286 81.869326 37.6243897 81.869326 37.6243897 95.6814904 35.9476238 95.6814904 28.1082504 85.9342027 28.1082504 95.6814904"></polygon>
                    <path d="M46.3765813,92.860011 L48.0428263,91.7540384 C48.50443,92.5430795 49.1159564,93.1190795 49.8774054,93.4820384 C50.6375392,93.8436822 51.4581681,94.0251616 52.337977,94.0251616 C52.6851662,94.0251616 53.0205194,94.0001753 53.3414063,93.9528329 C53.6622933,93.9041753 53.9766047,93.8239562 54.2817103,93.7108603 C54.5868159,93.5990795 54.8524682,93.4583671 55.0773521,93.2874082 C55.302236,93.1177644 55.4850364,92.899463 55.623123,92.6325041 C55.7612095,92.3668603 55.8295953,92.0657096 55.8295953,91.7329973 C55.8295953,91.4436822 55.7677851,91.1832986 55.6428496,90.9479014 C55.516599,90.7138192 55.3522102,90.517874 55.1509983,90.3613808 C54.9484713,90.2022575 54.6893945,90.0654904 54.373768,89.9458192 C54.0594566,89.827463 53.7438301,89.7406685 53.4255734,89.6841205 C53.1099469,89.6275726 52.7482915,89.5644493 52.3419224,89.4921205 C51.9224021,89.4184767 51.5462805,89.3514082 51.2148727,89.2935452 C50.8834649,89.2343671 50.5099735,89.1488877 50.0943986,89.0344767 C49.6801388,88.9200658 49.3303194,88.7951342 49.0436253,88.6596822 C48.7595615,88.5255452 48.4794429,88.3545863 48.2072151,88.1494356 C47.9336721,87.9442849 47.7114184,87.7167781 47.5365087,87.4642849 C47.3642293,87.215737 47.2248276,86.9172164 47.1169885,86.5752986 C47.0117797,86.2307507 46.9578601,85.8414904 46.9578601,85.4048877 C46.9644357,84.7368329 47.1222489,84.1424219 47.4312999,83.6229699 C47.7508717,83.0956274 48.1730222,82.6826959 48.6964362,82.3789151 C49.218535,82.0790795 49.7840325,81.8515726 50.3902984,81.7016548 C50.9965644,81.5491068 51.6251872,81.475463 52.2801122,81.475463 C54.7354234,81.475463 56.4516425,82.2552986 57.4287696,83.8149699 L55.7533189,84.9406685 C55.4245413,84.4725041 54.9550468,84.1016548 54.3448356,83.8294356 C53.7346243,83.5572164 53.0652331,83.413874 52.337977,83.4020384 C51.3871522,83.4020384 50.6151823,83.5900932 50.0220675,83.9662027 C49.4315829,84.3436274 49.1369982,84.8630795 49.1369982,85.5192986 C49.1369982,85.7796822 49.1974932,86.0150795 49.3171683,86.2228603 C49.4394736,86.4306411 49.5933415,86.6016 49.7827174,86.735737 C49.9707782,86.8685589 50.2311701,86.9829699 50.5612628,87.0789699 C50.8913555,87.1723397 51.195146,87.2433534 51.4726343,87.293326 C51.7501226,87.3406685 52.0841607,87.3985315 52.4747485,87.4656 C52.8863781,87.5379288 53.2624997,87.6023671 53.6044284,87.6615452 C53.945042,87.7207233 54.3303694,87.8206685 54.7630407,87.9600658 C55.1943969,88.1007781 55.5613128,88.2428055 55.8664184,88.3861479 C56.1688938,88.5294904 56.4634785,88.7096548 56.7475424,88.9266411 C57.0316063,89.1436274 57.2630657,89.3829699 57.4445509,89.6486137 C57.6260362,89.9129425 57.7706983,90.2246137 57.8811676,90.5849425 C57.9903218,90.9452712 58.0455564,91.3384767 58.0455564,91.7645589 C58.0389809,92.3642301 57.9285116,92.9034082 57.7128335,93.3847233 C57.4971554,93.8673534 57.2091462,94.2671342 56.850121,94.589326 C56.4897807,94.9115178 56.063685,95.1797918 55.5718336,95.3928329 C55.0812974,95.605874 54.5657741,95.759737 54.0252637,95.855737 C53.4847533,95.951737 52.9166256,96.0003945 52.3195655,96.0003945 C50.9321239,96.0003945 49.7458943,95.7557918 48.7595615,95.2679014 C47.7732286,94.780011 46.980217,93.9778192 46.3765813,92.860011" id="Fill-35" fill="#949DAF" mask="url(#mask-4)"></path>
                    <polygon id="Fill-36" fill="#949DAF" mask="url(#mask-4)" points="65.6434756 83.8433753 65.6434756 81.8694575 76.9323838 81.8694575 76.9323838 83.8433753 72.4057736 83.8433753 72.4057736 95.6816219 70.1898125 95.6816219 70.1898125 83.8433753"></polygon>
                    <polygon id="Fill-37" fill="#949DAF" mask="url(#mask-4)" points="85.3414631 95.6817534 87.5574242 95.6817534 87.5574242 81.869589 85.3414631 81.869589"></polygon>
                    <polygon id="Fill-38" fill="#949DAF" mask="url(#mask-4)" points="95.948881 83.8433753 95.948881 81.8694575 107.237789 81.8694575 107.237789 83.8433753 102.711179 83.8433753 102.711179 95.6816219 100.495218 95.6816219 100.495218 83.8433753"></polygon>
                    <path d="M115.553496,89.9601534 L115.553496,81.888263 L117.730003,81.888263 L117.730003,89.9470027 C117.730003,91.1647562 118.05089,92.1181808 118.695295,92.8033315 C119.338384,93.4897973 120.18926,93.8514411 121.250554,93.8895781 C121.334721,93.8961534 121.417573,93.8987836 121.500425,93.8987836 C122.517006,93.906674 123.353416,93.5818521 124.009656,92.928263 C124.717185,92.2233863 125.072265,91.2291945 125.078841,89.9470027 L125.078841,81.888263 L127.256664,81.888263 L127.256664,89.9601534 C127.256664,90.9490849 127.100166,91.8354411 126.789799,92.6179068 C126.479433,93.4016877 126.048077,94.0381808 125.499676,94.5260712 C124.951275,95.0139616 124.317392,95.3795507 123.599341,95.6241534 C122.964143,95.8424548 122.277655,95.9516055 121.539878,95.9516055 C121.443875,95.9516055 121.346557,95.9476603 121.250554,95.9410849 C120.468063,95.922674 119.739492,95.7806466 119.06221,95.5176329 C118.384929,95.2546192 117.782608,94.8824548 117.256564,94.3998247 C116.731835,93.9198247 116.314945,93.2977973 116.011154,92.5363726 C115.706048,91.776263 115.553496,90.9175233 115.553496,89.9601534" id="Fill-39" fill="#949DAF" mask="url(#mask-4)"></path>
                    <polygon id="Fill-40" fill="#949DAF" mask="url(#mask-4)" points="135.580655 83.8433753 135.580655 81.8694575 146.869564 81.8694575 146.869564 83.8433753 142.342953 83.8433753 142.342953 95.6816219 140.126992 95.6816219 140.126992 83.8433753"></polygon>
                    <polygon id="Fill-41" fill="#949DAF" mask="url(#mask-4)" points="155.279037 95.6814904 155.279037 81.869326 165.422484 81.869326 165.422484 84.0273534 157.494998 84.0273534 157.494998 87.7555726 165.104228 87.7555726 165.104228 89.8057644 157.494998 89.8057644 157.494998 93.523463 165.479034 93.523463 165.479034 95.6814904"></polygon>
                    <path d="M28.7395034,23.3905973 C26.7037124,24.863474 24.2247292,25.6012274 21.3025538,25.6012274 C19.6652412,25.6012274 18.1581247,25.3724055 16.7825191,24.9187068 C15.4069136,24.4636932 14.2364653,23.8429808 13.2698591,23.0605151 C12.304568,22.272789 11.4852542,21.3430356 10.815863,20.2699397 C10.1438415,19.1942137 9.65067509,18.0356384 9.33241836,16.7968438 C9.0365185,15.6132822 8.88922613,14.3692274 8.88922613,13.0594192 L8.88922613,12.9226521 C8.89974702,11.615474 9.06808115,10.3556384 9.39291344,9.14577534 C9.71643061,7.93328219 10.2201179,6.80232329 10.9013451,5.74895342 C11.5825724,4.69689863 12.4045164,3.78292603 13.3658621,3.00440548 C14.3258928,2.22456986 15.4858202,1.61043288 16.8430142,1.16067945 C18.2028384,0.712241096 19.6889132,0.486049315 21.3025538,0.486049315 C22.935921,0.486049315 24.4351469,0.712241096 25.805492,1.16067945 C27.1758371,1.61043288 28.3397098,2.2272 29.306316,3.01098082 C30.2689769,3.79607671 31.0909209,4.71793973 31.770833,5.77525479 C32.4507451,6.83388493 32.949172,7.97273425 33.270059,9.19574795 C33.5896308,10.4187616 33.7513894,11.6943781 33.7513894,13.0278575 C33.7513894,14.5165151 33.5146695,15.9788712 33.0412297,17.4122959 C32.6414362,18.6274192 32.0864595,19.737337 31.3789301,20.7394192 L29.508843,19.1718575 C29.973077,18.4551452 30.3465684,17.6818849 30.6266869,16.8494466 C31.0251654,15.7000767 31.2250622,14.4823233 31.2250622,13.1961863 L31.2250622,12.9910356 C31.2119111,11.8679671 31.0777698,10.7988164 30.8239535,9.79410411 C30.5661918,8.78676164 30.1729738,7.85437808 29.6442994,6.99563836 C29.1143099,6.1382137 28.4659604,5.39783014 27.6966208,4.77843288 C26.9285963,4.15772055 25.9988132,3.66983014 24.9046413,3.31870685 C23.8117845,2.96758356 22.6097736,2.79136438 21.3025538,2.79136438 C19.7980674,2.79136438 18.4145712,3.05963836 17.1520652,3.60013151 C15.8895591,4.14062466 14.8322103,4.87048767 13.9839641,5.79366575 C13.1370329,6.71289863 12.4781626,7.78862466 12.0126135,9.01689863 C11.5575853,10.2215014 11.328756,11.5023781 11.328756,12.8542685 L11.328756,12.959474 L11.328756,13.0962411 C11.328756,14.1404055 11.4536915,15.1438027 11.7061927,16.0998575 C11.9652695,17.0993096 12.3676933,18.0356384 12.9082037,18.912789 C13.4487141,19.7899397 14.1102147,20.5500493 14.8900752,21.1983781 C15.6699357,21.8480219 16.6089245,22.3595836 17.7057267,22.7343781 C18.8064741,23.1104877 20.0032246,23.2959123 21.3025538,23.2959123 C22.9201396,23.2959123 24.3746518,23.0105425 25.6647752,22.4358575 C26.1802985,22.2070356 26.6537382,21.9466521 27.0903549,21.657337" id="Fill-42" fill="#3E5279" mask="url(#mask-4)"></path>
                    <path d="M33.4708763,24.0115726 C33.4366834,24.0115726 33.4024906,24.0128877 33.3682977,24.0155178 C33.0329445,24.0431342 32.729154,24.1996274 32.5121608,24.4547507 C32.2925373,24.711189 32.1873285,25.037326 32.2162609,25.3726685 C32.2714956,26.0643945 32.8725011,26.5680658 33.5721398,26.5246685 C34.2638879,26.4681205 34.7794112,25.8592438 34.7241766,25.1688329 C34.6702571,24.5112986 34.1179107,24.0115726 33.4708763,24.0115726 M33.4682461,28.5012164 C31.8033163,28.5012164 30.3856272,27.2177096 30.2501708,25.5317918 C30.1791548,24.671737 30.4487525,23.8353534 31.0076744,23.1778192 C31.5665964,22.5202849 32.347772,22.1205041 33.2091693,22.0508055 C34.0692516,21.9771616 34.9043467,22.2493808 35.5619019,22.8082849 C36.2194572,23.3685041 36.6205659,24.1483397 36.6902667,25.0097096 C36.7599676,25.8697644 36.4903699,26.7048329 35.931448,27.3623671 C35.372526,28.0199014 34.5926655,28.4209973 33.7312682,28.4893808 C33.6431558,28.4972712 33.5537283,28.5012164 33.4682461,28.5012164" id="Fill-43" fill="#3E517A" mask="url(#mask-4)"></path>
                    <path d="M25.4761883,16.8352438 C25.4564617,16.8352438 25.4380501,16.8352438 25.4170083,16.8365589 C25.2236871,16.8536548 25.0461472,16.9443945 24.9198966,17.0916822 C24.793646,17.2416 24.7331509,17.4309699 24.7489322,17.6256 C24.78181,18.0253808 25.1289992,18.3186411 25.5353683,18.2923397 C25.936477,18.259463 26.2363222,17.9070247 26.2047595,17.5059288 C26.1731969,17.1245589 25.8523099,16.8352438 25.4761883,16.8352438 M25.4748732,19.4390795 C24.5108972,19.4390795 23.6876381,18.6960658 23.6087315,17.7176548 C23.567963,17.2179288 23.7244612,16.7326685 24.0479784,16.3512986 C24.3728106,15.9699288 24.8252086,15.7384767 25.3249506,15.6977096 C25.8246926,15.6556274 26.3086532,15.8134356 26.6900353,16.1369425 C27.0714173,16.4617644 27.3041919,16.915463 27.3449603,17.413874 C27.3844136,17.9136 27.2292306,18.3975452 26.9043983,18.7789151 C26.5808811,19.1602849 26.127168,19.3930521 25.627426,19.4325041 C25.5774518,19.4377644 25.5248474,19.4390795 25.4748732,19.4390795" id="Fill-44" fill="#3E517A" mask="url(#mask-4)"></path>
                    <polygon id="Fill-45" fill="#3E5279" mask="url(#mask-4)" points="90.7031684 62.957589 93.1006148 62.957589 93.1006148 47.5186849 90.7031684 47.5186849"></polygon>
                    <path d="M92.1499214,41.6115288 C92.1223041,41.6115288 92.0946868,41.6128438 92.0683846,41.615474 C91.8001021,41.6365151 91.5581217,41.7601315 91.3845272,41.9652822 C91.2109326,42.1691178 91.1280806,42.4281863 91.1491224,42.6951452 C91.1701642,42.9621041 91.2950996,43.2053918 91.4989418,43.3789808 C91.7027839,43.5525699 91.9618606,43.6288438 92.2301432,43.6143781 C92.4971106,43.593337 92.7390909,43.4684055 92.9126855,43.2645699 C93.0862801,43.0607342 93.1691321,42.8003507 93.1494054,42.5333918 L93.1480903,42.5333918 C93.1270485,42.2664329 93.002113,42.0231452 92.7982709,41.8508712 C92.6154705,41.6943781 92.3879564,41.6115288 92.1499214,41.6115288 M92.1433459,45.589611 C91.4397618,45.589611 90.763795,45.3436932 90.2219695,44.880789 C89.6157036,44.3679123 89.2461575,43.6472548 89.1830322,42.8542685 C89.1185918,42.0625973 89.3671477,41.2919671 89.8813559,40.6870356 C90.3955641,40.0821041 91.1162446,39.7125699 91.9079411,39.6494466 C92.7035829,39.5718575 93.4702923,39.8322411 94.0765583,40.3477479 C94.6815091,40.8619397 95.0510551,41.5825973 95.1141804,42.3742685 C95.1786208,43.1672548 94.930065,43.9365699 94.4158568,44.5415014 C93.9016486,45.1464329 93.180968,45.5172822 92.3892715,45.5804055 C92.3064196,45.5869808 92.2261979,45.589611 92.1433459,45.589611" id="Fill-46" fill="#3E517A" mask="url(#mask-4)"></path>
                </g>
            </g>
        </g>
    </g>
</svg>
